solid OpenSCAD_Model
  facet normal -0 0 1
    outer loop
      vertex -72.5 23.75 0.95
      vertex 71.55 -23.75 0.95
      vertex 71.55 23.75 0.95
    endloop
  endfacet
  facet normal 0 0 1
    outer loop
      vertex 71.55 -23.75 0.95
      vertex -72.5 23.75 0.95
      vertex -72.5 -23.75 0.95
    endloop
  endfacet
  facet normal 0 0 -1
    outer loop
      vertex -72.5 -23.75 -0.95
      vertex 73.45 23.75 -0.95
      vertex 73.45 -23.75 -0.95
    endloop
  endfacet
  facet normal -0 0 -1
    outer loop
      vertex 73.45 23.75 -0.95
      vertex -72.5 -23.75 -0.95
      vertex -72.5 23.75 -0.95
    endloop
  endfacet
  facet normal -1 0 0
    outer loop
      vertex -72.5 -23.75 -0.95
      vertex -72.5 23.75 0.95
      vertex -72.5 23.75 -0.95
    endloop
  endfacet
  facet normal -1 -0 0
    outer loop
      vertex -72.5 23.75 0.95
      vertex -72.5 -23.75 -0.95
      vertex -72.5 -23.75 0.95
    endloop
  endfacet
  facet normal 0 1 0
    outer loop
      vertex 73.45 23.75 19.05
      vertex 71.55 23.75 0.95
      vertex 71.55 23.75 19.05
    endloop
  endfacet
  facet normal 0 1 -0
    outer loop
      vertex 73.45 23.75 -0.95
      vertex 71.55 23.75 0.95
      vertex 73.45 23.75 19.05
    endloop
  endfacet
  facet normal 0 1 0
    outer loop
      vertex -72.5 23.75 -0.95
      vertex 71.55 23.75 0.95
      vertex 73.45 23.75 -0.95
    endloop
  endfacet
  facet normal 0 1 0
    outer loop
      vertex 71.55 23.75 0.95
      vertex -72.5 23.75 -0.95
      vertex -72.5 23.75 0.95
    endloop
  endfacet
  facet normal 0 -1 0
    outer loop
      vertex -72.5 -23.75 0.95
      vertex -72.5 -23.75 -0.95
      vertex 71.55 -23.75 0.95
    endloop
  endfacet
  facet normal 0 -1 0
    outer loop
      vertex 71.55 -23.75 0.95
      vertex 73.45 -23.75 19.05
      vertex 71.55 -23.75 19.05
    endloop
  endfacet
  facet normal 0 -1 0
    outer loop
      vertex 71.55 -23.75 0.95
      vertex 73.45 -23.75 -0.95
      vertex 73.45 -23.75 19.05
    endloop
  endfacet
  facet normal 0 -1 0
    outer loop
      vertex 73.45 -23.75 -0.95
      vertex 71.55 -23.75 0.95
      vertex -72.5 -23.75 -0.95
    endloop
  endfacet
  facet normal 1 -0 0
    outer loop
      vertex 73.45 -23.75 19.05
      vertex 73.45 23.75 -0.95
      vertex 73.45 23.75 19.05
    endloop
  endfacet
  facet normal 1 0 0
    outer loop
      vertex 73.45 23.75 -0.95
      vertex 73.45 -23.75 19.05
      vertex 73.45 -23.75 -0.95
    endloop
  endfacet
  facet normal -0 0 1
    outer loop
      vertex 71.55 23.75 19.05
      vertex 73.45 -23.75 19.05
      vertex 73.45 23.75 19.05
    endloop
  endfacet
  facet normal 0 0 1
    outer loop
      vertex 73.45 -23.75 19.05
      vertex 71.55 23.75 19.05
      vertex 71.55 -23.75 19.05
    endloop
  endfacet
  facet normal -1 0 0
    outer loop
      vertex 71.55 -23.75 0.95
      vertex 71.55 23.75 19.05
      vertex 71.55 23.75 0.95
    endloop
  endfacet
  facet normal -1 -0 0
    outer loop
      vertex 71.55 23.75 19.05
      vertex 71.55 -23.75 0.95
      vertex 71.55 -23.75 19.05
    endloop
  endfacet
endsolid OpenSCAD_Model
