solid OpenSCAD_Model
  facet normal -0.707107 0 -0.707107
    outer loop
      vertex 71.55 -21.85 18.263
      vertex 71.3581 -4.75528 18.4549
      vertex 71.55 -4.68619 18.263
    endloop
  endfacet
  facet normal -0.70699 2.62289e-06 -0.707224
    outer loop
      vertex 71.55 -21.85 18.263
      vertex 71.0564 -4.84292 18.7565
      vertex 71.3581 -4.75528 18.4549
    endloop
  endfacet
  facet normal -0.707221 -1.07818e-05 -0.706993
    outer loop
      vertex 71.55 -21.85 18.263
      vertex 70.7499 -4.91144 19.0631
      vertex 71.0564 -4.84292 18.7565
    endloop
  endfacet
  facet normal -0.707107 -9.04628e-16 -0.707107
    outer loop
      vertex 71.55 -21.85 18.263
      vertex 70.4397 -4.96057 19.3733
      vertex 70.7499 -4.91144 19.0631
    endloop
  endfacet
  facet normal -0.706994 1.47714e-05 -0.707219
    outer loop
      vertex 71.55 -21.85 18.263
      vertex 70.1269 -4.99013 19.686
      vertex 70.4397 -4.96057 19.3733
    endloop
  endfacet
  facet normal -0.707107 -4.19402e-06 -0.707107
    outer loop
      vertex 69.813 -21.85 20
      vertex 70.1269 -4.99013 19.686
      vertex 71.55 -21.85 18.263
    endloop
  endfacet
  facet normal -0.707219 0 -0.706994
    outer loop
      vertex 70.1269 -4.99013 19.686
      vertex 69.813 -21.85 20
      vertex 69.813 -5 20
    endloop
  endfacet
  facet normal -0.707107 0 -0.707107
    outer loop
      vertex 71.3581 4.75528 18.4549
      vertex 71.55 21.85 18.263
      vertex 71.55 4.68619 18.263
    endloop
  endfacet
  facet normal -0.70699 -2.62289e-06 -0.707224
    outer loop
      vertex 71.0564 4.84292 18.7565
      vertex 71.55 21.85 18.263
      vertex 71.3581 4.75528 18.4549
    endloop
  endfacet
  facet normal -0.707221 1.07818e-05 -0.706993
    outer loop
      vertex 70.7499 4.91144 19.0631
      vertex 71.55 21.85 18.263
      vertex 71.0564 4.84292 18.7565
    endloop
  endfacet
  facet normal -0.707107 9.04628e-16 -0.707107
    outer loop
      vertex 70.4397 4.96057 19.3733
      vertex 71.55 21.85 18.263
      vertex 70.7499 4.91144 19.0631
    endloop
  endfacet
  facet normal -0.706994 -1.47714e-05 -0.707219
    outer loop
      vertex 70.1269 4.99013 19.686
      vertex 71.55 21.85 18.263
      vertex 70.4397 4.96057 19.3733
    endloop
  endfacet
  facet normal -0.707219 -0 -0.706994
    outer loop
      vertex 69.813 21.85 20
      vertex 70.1269 4.99013 19.686
      vertex 69.813 5 20
    endloop
  endfacet
  facet normal -0.707107 4.19402e-06 -0.707107
    outer loop
      vertex 70.1269 4.99013 19.686
      vertex 69.813 21.85 20
      vertex 71.55 21.85 18.263
    endloop
  endfacet
  facet normal -0.707107 0 0.707107
    outer loop
      vertex 69.863 -21.85 20.05
      vertex 69.813 -5 20
      vertex 69.813 -21.85 20
    endloop
  endfacet
  facet normal -0.707107 0 0.707107
    outer loop
      vertex 69.813 -5 20
      vertex 69.863 -21.85 20.05
      vertex 69.863 -4.99843 20.05
    endloop
  endfacet
  facet normal -0.707107 0 0.707107
    outer loop
      vertex 69.813 5 20
      vertex 69.863 21.85 20.05
      vertex 69.813 21.85 20
    endloop
  endfacet
  facet normal -0.707107 0 0.707107
    outer loop
      vertex 69.863 21.85 20.05
      vertex 69.813 5 20
      vertex 69.863 4.99843 20.05
    endloop
  endfacet
  facet normal 0 1 -0
    outer loop
      vertex 71.55 21.85 19.05
      vertex 69.863 21.85 20.05
      vertex 73.45 21.85 20.05
    endloop
  endfacet
  facet normal 0 1 0
    outer loop
      vertex 71.55 21.85 19.05
      vertex 73.45 21.85 20.05
      vertex 73.45 21.85 19.05
    endloop
  endfacet
  facet normal 0 1 0
    outer loop
      vertex 69.863 21.85 20.05
      vertex 71.55 21.85 19.05
      vertex 69.813 21.85 20
    endloop
  endfacet
  facet normal 0 1 0
    outer loop
      vertex 69.813 21.85 20
      vertex 71.55 21.85 19.05
      vertex 71.55 21.85 18.263
    endloop
  endfacet
  facet normal 0 -1 0
    outer loop
      vertex 69.813 -21.85 20
      vertex 71.55 -21.85 18.263
      vertex 71.55 -21.85 19.05
    endloop
  endfacet
  facet normal 0 -1 0
    outer loop
      vertex 71.55 -21.85 19.05
      vertex 69.863 -21.85 20.05
      vertex 69.813 -21.85 20
    endloop
  endfacet
  facet normal 0 -1 0
    outer loop
      vertex 69.863 -21.85 20.05
      vertex 71.55 -21.85 19.05
      vertex 73.45 -21.85 20.05
    endloop
  endfacet
  facet normal 0 -1 -0
    outer loop
      vertex 73.45 -21.85 20.05
      vertex 71.55 -21.85 19.05
      vertex 73.45 -21.85 19.05
    endloop
  endfacet
  facet normal 1 0 0
    outer loop
      vertex 73.45 -4.99843 20.05
      vertex 73.45 -21.85 20.05
      vertex 73.45 -5 20
    endloop
  endfacet
  facet normal 1 0 0
    outer loop
      vertex 73.45 21.85 20.05
      vertex 73.45 5 20
      vertex 73.45 21.85 19.05
    endloop
  endfacet
  facet normal 1 0 -0
    outer loop
      vertex 73.45 5 20
      vertex 73.45 21.85 20.05
      vertex 73.45 4.99843 20.05
    endloop
  endfacet
  facet normal 1 -0 0
    outer loop
      vertex 73.45 21.85 19.05
      vertex 73.45 23.75 -0.95
      vertex 73.45 23.75 19.05
    endloop
  endfacet
  facet normal 1 -0 0
    outer loop
      vertex 73.45 4.99013 19.686
      vertex 73.45 21.85 19.05
      vertex 73.45 5 20
    endloop
  endfacet
  facet normal 1 -0 0
    outer loop
      vertex 73.45 4.96057 19.3733
      vertex 73.45 21.85 19.05
      vertex 73.45 4.99013 19.686
    endloop
  endfacet
  facet normal 1 -0 0
    outer loop
      vertex 73.45 4.91144 19.0631
      vertex 73.45 21.85 19.05
      vertex 73.45 4.96057 19.3733
    endloop
  endfacet
  facet normal 1 0 0
    outer loop
      vertex 73.45 4.84292 18.7565
      vertex 73.45 21.85 19.05
      vertex 73.45 4.91144 19.0631
    endloop
  endfacet
  facet normal 1 0 0
    outer loop
      vertex 73.45 4.75528 18.4549
      vertex 73.45 21.85 19.05
      vertex 73.45 4.84292 18.7565
    endloop
  endfacet
  facet normal 1 0 0
    outer loop
      vertex 73.45 4.64888 18.1594
      vertex 73.45 21.85 19.05
      vertex 73.45 4.75528 18.4549
    endloop
  endfacet
  facet normal 1 0 0
    outer loop
      vertex 73.45 4.52413 17.8711
      vertex 73.45 21.85 19.05
      vertex 73.45 4.64888 18.1594
    endloop
  endfacet
  facet normal 1 0 0
    outer loop
      vertex 73.45 4.38153 17.5912
      vertex 73.45 21.85 19.05
      vertex 73.45 4.52413 17.8711
    endloop
  endfacet
  facet normal 1 0 0
    outer loop
      vertex 73.45 4.22164 17.3209
      vertex 73.45 21.85 19.05
      vertex 73.45 4.38153 17.5912
    endloop
  endfacet
  facet normal 1 0 0
    outer loop
      vertex 73.45 4.04508 17.0611
      vertex 73.45 21.85 19.05
      vertex 73.45 4.22164 17.3209
    endloop
  endfacet
  facet normal 1 0 0
    outer loop
      vertex 73.45 3.85257 16.8129
      vertex 73.45 21.85 19.05
      vertex 73.45 4.04508 17.0611
    endloop
  endfacet
  facet normal 1 0 0
    outer loop
      vertex 73.45 21.85 19.05
      vertex 73.45 3.85257 16.8129
      vertex 73.45 23.75 -0.95
    endloop
  endfacet
  facet normal 1 -0 0
    outer loop
      vertex 73.45 3.64484 16.5773
      vertex 73.45 23.75 -0.95
      vertex 73.45 3.85257 16.8129
    endloop
  endfacet
  facet normal 1 -0 0
    outer loop
      vertex 73.45 3.42274 16.3552
      vertex 73.45 23.75 -0.95
      vertex 73.45 3.64484 16.5773
    endloop
  endfacet
  facet normal 1 -0 0
    outer loop
      vertex 73.45 3.18712 16.1474
      vertex 73.45 23.75 -0.95
      vertex 73.45 3.42274 16.3552
    endloop
  endfacet
  facet normal 1 -0 0
    outer loop
      vertex 73.45 2.93893 15.9549
      vertex 73.45 23.75 -0.95
      vertex 73.45 3.18712 16.1474
    endloop
  endfacet
  facet normal 1 -0 0
    outer loop
      vertex 73.45 2.67913 15.7784
      vertex 73.45 23.75 -0.95
      vertex 73.45 2.93893 15.9549
    endloop
  endfacet
  facet normal 1 -0 0
    outer loop
      vertex 73.45 2.40877 15.6185
      vertex 73.45 23.75 -0.95
      vertex 73.45 2.67913 15.7784
    endloop
  endfacet
  facet normal 1 -0 0
    outer loop
      vertex 73.45 2.1289 15.4759
      vertex 73.45 23.75 -0.95
      vertex 73.45 2.40877 15.6185
    endloop
  endfacet
  facet normal 1 -0 0
    outer loop
      vertex 73.45 1.84062 15.3511
      vertex 73.45 23.75 -0.95
      vertex 73.45 2.1289 15.4759
    endloop
  endfacet
  facet normal 1 -0 0
    outer loop
      vertex 73.45 1.54508 15.2447
      vertex 73.45 23.75 -0.95
      vertex 73.45 1.84062 15.3511
    endloop
  endfacet
  facet normal 1 -0 0
    outer loop
      vertex 73.45 1.24345 15.1571
      vertex 73.45 23.75 -0.95
      vertex 73.45 1.54508 15.2447
    endloop
  endfacet
  facet normal 1 -0 0
    outer loop
      vertex 73.45 0.936906 15.0886
      vertex 73.45 23.75 -0.95
      vertex 73.45 1.24345 15.1571
    endloop
  endfacet
  facet normal 1 -0 0
    outer loop
      vertex 73.45 0.626666 15.0394
      vertex 73.45 23.75 -0.95
      vertex 73.45 0.936906 15.0886
    endloop
  endfacet
  facet normal 1 -0 0
    outer loop
      vertex 73.45 0.313952 15.0099
      vertex 73.45 23.75 -0.95
      vertex 73.45 0.626666 15.0394
    endloop
  endfacet
  facet normal 1 -0 0
    outer loop
      vertex 73.45 0 15
      vertex 73.45 23.75 -0.95
      vertex 73.45 0.313952 15.0099
    endloop
  endfacet
  facet normal 1 0 0
    outer loop
      vertex 73.45 -23.75 -0.95
      vertex 73.45 0 15
      vertex 73.45 -0.313952 15.0099
    endloop
  endfacet
  facet normal 1 0 0
    outer loop
      vertex 73.45 -23.75 -0.95
      vertex 73.45 -0.313952 15.0099
      vertex 73.45 -0.626666 15.0394
    endloop
  endfacet
  facet normal 1 0 0
    outer loop
      vertex 73.45 -23.75 -0.95
      vertex 73.45 -0.626666 15.0394
      vertex 73.45 -0.936906 15.0886
    endloop
  endfacet
  facet normal 1 0 0
    outer loop
      vertex 73.45 -23.75 -0.95
      vertex 73.45 -0.936906 15.0886
      vertex 73.45 -1.24345 15.1571
    endloop
  endfacet
  facet normal 1 0 0
    outer loop
      vertex 73.45 -23.75 -0.95
      vertex 73.45 -1.24345 15.1571
      vertex 73.45 -1.54508 15.2447
    endloop
  endfacet
  facet normal 1 0 0
    outer loop
      vertex 73.45 -23.75 -0.95
      vertex 73.45 -1.54508 15.2447
      vertex 73.45 -1.84062 15.3511
    endloop
  endfacet
  facet normal 1 0 0
    outer loop
      vertex 73.45 -23.75 -0.95
      vertex 73.45 -1.84062 15.3511
      vertex 73.45 -2.1289 15.4759
    endloop
  endfacet
  facet normal 1 0 0
    outer loop
      vertex 73.45 -23.75 -0.95
      vertex 73.45 -2.1289 15.4759
      vertex 73.45 -2.40877 15.6185
    endloop
  endfacet
  facet normal 1 0 0
    outer loop
      vertex 73.45 -23.75 -0.95
      vertex 73.45 -2.40877 15.6185
      vertex 73.45 -2.67913 15.7784
    endloop
  endfacet
  facet normal 1 0 0
    outer loop
      vertex 73.45 -21.85 20.05
      vertex 73.45 -4.99013 19.686
      vertex 73.45 -5 20
    endloop
  endfacet
  facet normal 1 0 0
    outer loop
      vertex 73.45 -21.85 19.05
      vertex 73.45 -4.99013 19.686
      vertex 73.45 -21.85 20.05
    endloop
  endfacet
  facet normal 1 0 0
    outer loop
      vertex 73.45 -4.99013 19.686
      vertex 73.45 -21.85 19.05
      vertex 73.45 -4.96057 19.3733
    endloop
  endfacet
  facet normal 1 0 0
    outer loop
      vertex 73.45 -4.96057 19.3733
      vertex 73.45 -21.85 19.05
      vertex 73.45 -4.91144 19.0631
    endloop
  endfacet
  facet normal 1 0 0
    outer loop
      vertex 73.45 -4.91144 19.0631
      vertex 73.45 -21.85 19.05
      vertex 73.45 -4.84292 18.7565
    endloop
  endfacet
  facet normal 1 0 0
    outer loop
      vertex 73.45 -4.84292 18.7565
      vertex 73.45 -21.85 19.05
      vertex 73.45 -4.75528 18.4549
    endloop
  endfacet
  facet normal 1 0 0
    outer loop
      vertex 73.45 -4.75528 18.4549
      vertex 73.45 -21.85 19.05
      vertex 73.45 -4.64888 18.1594
    endloop
  endfacet
  facet normal 1 0 0
    outer loop
      vertex 73.45 -4.64888 18.1594
      vertex 73.45 -21.85 19.05
      vertex 73.45 -4.52413 17.8711
    endloop
  endfacet
  facet normal 1 0 0
    outer loop
      vertex 73.45 -4.52413 17.8711
      vertex 73.45 -21.85 19.05
      vertex 73.45 -4.38153 17.5912
    endloop
  endfacet
  facet normal 1 0 0
    outer loop
      vertex 73.45 -4.38153 17.5912
      vertex 73.45 -21.85 19.05
      vertex 73.45 -4.22164 17.3209
    endloop
  endfacet
  facet normal 1 0 0
    outer loop
      vertex 73.45 -4.22164 17.3209
      vertex 73.45 -21.85 19.05
      vertex 73.45 -4.04508 17.0611
    endloop
  endfacet
  facet normal 1 0 0
    outer loop
      vertex 73.45 -4.04508 17.0611
      vertex 73.45 -21.85 19.05
      vertex 73.45 -3.85257 16.8129
    endloop
  endfacet
  facet normal 1 0 0
    outer loop
      vertex 73.45 -23.75 -0.95
      vertex 73.45 -3.85257 16.8129
      vertex 73.45 -21.85 19.05
    endloop
  endfacet
  facet normal 1 0 0
    outer loop
      vertex 73.45 -3.85257 16.8129
      vertex 73.45 -23.75 -0.95
      vertex 73.45 -3.64484 16.5773
    endloop
  endfacet
  facet normal 1 0 0
    outer loop
      vertex 73.45 -3.64484 16.5773
      vertex 73.45 -23.75 -0.95
      vertex 73.45 -3.42274 16.3552
    endloop
  endfacet
  facet normal 1 0 0
    outer loop
      vertex 73.45 -3.42274 16.3552
      vertex 73.45 -23.75 -0.95
      vertex 73.45 -3.18712 16.1474
    endloop
  endfacet
  facet normal 1 0 0
    outer loop
      vertex 73.45 -3.18712 16.1474
      vertex 73.45 -23.75 -0.95
      vertex 73.45 -2.93893 15.9549
    endloop
  endfacet
  facet normal 1 0 0
    outer loop
      vertex 73.45 -2.93893 15.9549
      vertex 73.45 -23.75 -0.95
      vertex 73.45 -2.67913 15.7784
    endloop
  endfacet
  facet normal 1 0 0
    outer loop
      vertex 73.45 -23.75 -0.95
      vertex 73.45 -21.85 19.05
      vertex 73.45 -23.75 19.05
    endloop
  endfacet
  facet normal 1 0 0
    outer loop
      vertex 73.45 0 15
      vertex 73.45 -23.75 -0.95
      vertex 73.45 23.75 -0.95
    endloop
  endfacet
  facet normal -0 0 1
    outer loop
      vertex 69.863 21.85 20.05
      vertex 73.45 4.99843 20.05
      vertex 73.45 21.85 20.05
    endloop
  endfacet
  facet normal 0 0 1
    outer loop
      vertex 73.45 4.99843 20.05
      vertex 69.863 21.85 20.05
      vertex 69.863 4.99843 20.05
    endloop
  endfacet
  facet normal -0 0 1
    outer loop
      vertex 69.863 -4.99843 20.05
      vertex 73.45 -21.85 20.05
      vertex 73.45 -4.99843 20.05
    endloop
  endfacet
  facet normal 0 0 1
    outer loop
      vertex 73.45 -21.85 20.05
      vertex 69.863 -4.99843 20.05
      vertex 69.863 -21.85 20.05
    endloop
  endfacet
  facet normal -0 0 1
    outer loop
      vertex 71.55 23.75 19.05
      vertex 73.45 21.85 19.05
      vertex 73.45 23.75 19.05
    endloop
  endfacet
  facet normal 0 0 1
    outer loop
      vertex 73.45 21.85 19.05
      vertex 71.55 23.75 19.05
      vertex 71.55 21.85 19.05
    endloop
  endfacet
  facet normal -0 0 1
    outer loop
      vertex 71.55 -21.85 19.05
      vertex 73.45 -23.75 19.05
      vertex 73.45 -21.85 19.05
    endloop
  endfacet
  facet normal 0 0 1
    outer loop
      vertex 73.45 -23.75 19.05
      vertex 71.55 -21.85 19.05
      vertex 71.55 -23.75 19.05
    endloop
  endfacet
  facet normal 0 0 -1
    outer loop
      vertex -72.5 -23.75 -0.95
      vertex 73.45 23.75 -0.95
      vertex 73.45 -23.75 -0.95
    endloop
  endfacet
  facet normal -0 0 -1
    outer loop
      vertex 73.45 23.75 -0.95
      vertex -72.5 -23.75 -0.95
      vertex -72.5 23.75 -0.95
    endloop
  endfacet
  facet normal -1 0 0
    outer loop
      vertex 71.55 23.75 0.95
      vertex 71.55 21.85 18.263
      vertex 71.55 23.75 19.05
    endloop
  endfacet
  facet normal -1 0 0
    outer loop
      vertex 71.55 3.85257 16.8129
      vertex 71.55 21.85 18.263
      vertex 71.55 23.75 0.95
    endloop
  endfacet
  facet normal -1 -0 0
    outer loop
      vertex 71.55 21.85 18.263
      vertex 71.55 4.64888 18.1594
      vertex 71.55 4.68619 18.263
    endloop
  endfacet
  facet normal -1 0 0
    outer loop
      vertex 71.55 21.85 18.263
      vertex 71.55 4.52413 17.8711
      vertex 71.55 4.64888 18.1594
    endloop
  endfacet
  facet normal -1 0 0
    outer loop
      vertex 71.55 21.85 18.263
      vertex 71.55 4.38153 17.5912
      vertex 71.55 4.52413 17.8711
    endloop
  endfacet
  facet normal -1 0 0
    outer loop
      vertex 71.55 21.85 18.263
      vertex 71.55 4.22164 17.3209
      vertex 71.55 4.38153 17.5912
    endloop
  endfacet
  facet normal -1 0 0
    outer loop
      vertex 71.55 21.85 18.263
      vertex 71.55 4.04508 17.0611
      vertex 71.55 4.22164 17.3209
    endloop
  endfacet
  facet normal -1 0 0
    outer loop
      vertex 71.55 21.85 18.263
      vertex 71.55 3.85257 16.8129
      vertex 71.55 4.04508 17.0611
    endloop
  endfacet
  facet normal -1 0 0
    outer loop
      vertex 71.55 23.75 0.95
      vertex 71.55 3.64484 16.5773
      vertex 71.55 3.85257 16.8129
    endloop
  endfacet
  facet normal -1 0 0
    outer loop
      vertex 71.55 23.75 0.95
      vertex 71.55 3.42274 16.3552
      vertex 71.55 3.64484 16.5773
    endloop
  endfacet
  facet normal -1 0 0
    outer loop
      vertex 71.55 23.75 0.95
      vertex 71.55 3.18712 16.1474
      vertex 71.55 3.42274 16.3552
    endloop
  endfacet
  facet normal -1 0 0
    outer loop
      vertex 71.55 23.75 0.95
      vertex 71.55 2.93893 15.9549
      vertex 71.55 3.18712 16.1474
    endloop
  endfacet
  facet normal -1 0 0
    outer loop
      vertex 71.55 23.75 0.95
      vertex 71.55 2.67913 15.7784
      vertex 71.55 2.93893 15.9549
    endloop
  endfacet
  facet normal -1 0 0
    outer loop
      vertex 71.55 23.75 0.95
      vertex 71.55 2.40877 15.6185
      vertex 71.55 2.67913 15.7784
    endloop
  endfacet
  facet normal -1 0 0
    outer loop
      vertex 71.55 23.75 0.95
      vertex 71.55 2.1289 15.4759
      vertex 71.55 2.40877 15.6185
    endloop
  endfacet
  facet normal -1 0 0
    outer loop
      vertex 71.55 23.75 0.95
      vertex 71.55 1.84062 15.3511
      vertex 71.55 2.1289 15.4759
    endloop
  endfacet
  facet normal -1 0 0
    outer loop
      vertex 71.55 23.75 0.95
      vertex 71.55 1.54508 15.2447
      vertex 71.55 1.84062 15.3511
    endloop
  endfacet
  facet normal -1 0 0
    outer loop
      vertex 71.55 23.75 0.95
      vertex 71.55 1.24345 15.1571
      vertex 71.55 1.54508 15.2447
    endloop
  endfacet
  facet normal -1 0 0
    outer loop
      vertex 71.55 23.75 0.95
      vertex 71.55 0.936906 15.0886
      vertex 71.55 1.24345 15.1571
    endloop
  endfacet
  facet normal -1 0 0
    outer loop
      vertex 71.55 23.75 0.95
      vertex 71.55 0.626666 15.0394
      vertex 71.55 0.936906 15.0886
    endloop
  endfacet
  facet normal -1 0 0
    outer loop
      vertex 71.55 23.75 0.95
      vertex 71.55 0.313952 15.0099
      vertex 71.55 0.626666 15.0394
    endloop
  endfacet
  facet normal -1 0 0
    outer loop
      vertex 71.55 23.75 0.95
      vertex 71.55 0 15
      vertex 71.55 0.313952 15.0099
    endloop
  endfacet
  facet normal -1 0 0
    outer loop
      vertex 71.55 -23.75 0.95
      vertex 71.55 0 15
      vertex 71.55 23.75 0.95
    endloop
  endfacet
  facet normal -1 -0 0
    outer loop
      vertex 71.55 0 15
      vertex 71.55 -23.75 0.95
      vertex 71.55 -0.313952 15.0099
    endloop
  endfacet
  facet normal -1 -0 0
    outer loop
      vertex 71.55 -0.313952 15.0099
      vertex 71.55 -23.75 0.95
      vertex 71.55 -0.626666 15.0394
    endloop
  endfacet
  facet normal -1 -0 0
    outer loop
      vertex 71.55 -0.626666 15.0394
      vertex 71.55 -23.75 0.95
      vertex 71.55 -0.936906 15.0886
    endloop
  endfacet
  facet normal -1 -0 0
    outer loop
      vertex 71.55 -0.936906 15.0886
      vertex 71.55 -23.75 0.95
      vertex 71.55 -1.24345 15.1571
    endloop
  endfacet
  facet normal -1 -0 0
    outer loop
      vertex 71.55 -1.24345 15.1571
      vertex 71.55 -23.75 0.95
      vertex 71.55 -1.54508 15.2447
    endloop
  endfacet
  facet normal -1 -0 0
    outer loop
      vertex 71.55 -1.54508 15.2447
      vertex 71.55 -23.75 0.95
      vertex 71.55 -1.84062 15.3511
    endloop
  endfacet
  facet normal -1 -0 0
    outer loop
      vertex 71.55 -1.84062 15.3511
      vertex 71.55 -23.75 0.95
      vertex 71.55 -2.1289 15.4759
    endloop
  endfacet
  facet normal -1 0 0
    outer loop
      vertex 71.55 -4.64888 18.1594
      vertex 71.55 -21.85 18.263
      vertex 71.55 -4.68619 18.263
    endloop
  endfacet
  facet normal -1 0 0
    outer loop
      vertex 71.55 -4.52413 17.8711
      vertex 71.55 -21.85 18.263
      vertex 71.55 -4.64888 18.1594
    endloop
  endfacet
  facet normal -1 0 0
    outer loop
      vertex 71.55 -4.38153 17.5912
      vertex 71.55 -21.85 18.263
      vertex 71.55 -4.52413 17.8711
    endloop
  endfacet
  facet normal -1 0 0
    outer loop
      vertex 71.55 -4.22164 17.3209
      vertex 71.55 -21.85 18.263
      vertex 71.55 -4.38153 17.5912
    endloop
  endfacet
  facet normal -1 0 0
    outer loop
      vertex 71.55 -4.04508 17.0611
      vertex 71.55 -21.85 18.263
      vertex 71.55 -4.22164 17.3209
    endloop
  endfacet
  facet normal -1 0 0
    outer loop
      vertex 71.55 -3.85257 16.8129
      vertex 71.55 -21.85 18.263
      vertex 71.55 -4.04508 17.0611
    endloop
  endfacet
  facet normal -1 0 0
    outer loop
      vertex 71.55 -23.75 0.95
      vertex 71.55 -3.85257 16.8129
      vertex 71.55 -3.64484 16.5773
    endloop
  endfacet
  facet normal -1 0 0
    outer loop
      vertex 71.55 -23.75 0.95
      vertex 71.55 -3.64484 16.5773
      vertex 71.55 -3.42274 16.3552
    endloop
  endfacet
  facet normal -1 0 0
    outer loop
      vertex 71.55 -23.75 0.95
      vertex 71.55 -3.42274 16.3552
      vertex 71.55 -3.18712 16.1474
    endloop
  endfacet
  facet normal -1 0 0
    outer loop
      vertex 71.55 -23.75 0.95
      vertex 71.55 -3.18712 16.1474
      vertex 71.55 -2.93893 15.9549
    endloop
  endfacet
  facet normal -1 0 0
    outer loop
      vertex 71.55 -23.75 0.95
      vertex 71.55 -2.93893 15.9549
      vertex 71.55 -2.67913 15.7784
    endloop
  endfacet
  facet normal -1 0 0
    outer loop
      vertex 71.55 -23.75 0.95
      vertex 71.55 -2.67913 15.7784
      vertex 71.55 -2.40877 15.6185
    endloop
  endfacet
  facet normal -1 -0 0
    outer loop
      vertex 71.55 -2.1289 15.4759
      vertex 71.55 -23.75 0.95
      vertex 71.55 -2.40877 15.6185
    endloop
  endfacet
  facet normal -1 -0 0
    outer loop
      vertex 71.55 -3.85257 16.8129
      vertex 71.55 -23.75 0.95
      vertex 71.55 -21.85 18.263
    endloop
  endfacet
  facet normal -1 0 0
    outer loop
      vertex 71.55 -23.75 19.05
      vertex 71.55 -21.85 18.263
      vertex 71.55 -23.75 0.95
    endloop
  endfacet
  facet normal -1 0 0
    outer loop
      vertex 71.55 -21.85 18.263
      vertex 71.55 -23.75 19.05
      vertex 71.55 -21.85 19.05
    endloop
  endfacet
  facet normal -1 -0 0
    outer loop
      vertex 71.55 23.75 19.05
      vertex 71.55 21.85 18.263
      vertex 71.55 21.85 19.05
    endloop
  endfacet
  facet normal 0 1 0
    outer loop
      vertex 73.45 23.75 19.05
      vertex 71.55 23.75 0.95
      vertex 71.55 23.75 19.05
    endloop
  endfacet
  facet normal 0 1 -0
    outer loop
      vertex 73.45 23.75 -0.95
      vertex 71.55 23.75 0.95
      vertex 73.45 23.75 19.05
    endloop
  endfacet
  facet normal 0 1 0
    outer loop
      vertex -72.5 23.75 -0.95
      vertex 71.55 23.75 0.95
      vertex 73.45 23.75 -0.95
    endloop
  endfacet
  facet normal 0 1 0
    outer loop
      vertex 71.55 23.75 0.95
      vertex -72.5 23.75 -0.95
      vertex -72.5 23.75 0.95
    endloop
  endfacet
  facet normal 0 -1 0
    outer loop
      vertex -72.5 -23.75 0.95
      vertex -72.5 -23.75 -0.95
      vertex 71.55 -23.75 0.95
    endloop
  endfacet
  facet normal 0 -1 0
    outer loop
      vertex 71.55 -23.75 0.95
      vertex 73.45 -23.75 19.05
      vertex 71.55 -23.75 19.05
    endloop
  endfacet
  facet normal 0 -1 0
    outer loop
      vertex 71.55 -23.75 0.95
      vertex 73.45 -23.75 -0.95
      vertex 73.45 -23.75 19.05
    endloop
  endfacet
  facet normal 0 -1 0
    outer loop
      vertex 73.45 -23.75 -0.95
      vertex 71.55 -23.75 0.95
      vertex -72.5 -23.75 -0.95
    endloop
  endfacet
  facet normal 0 -0.15663 0.987657
    outer loop
      vertex 71.55 0.936906 15.0886
      vertex 73.45 0.626666 15.0394
      vertex 73.45 0.936906 15.0886
    endloop
  endfacet
  facet normal 0 -0.15663 0.987657
    outer loop
      vertex 73.45 0.626666 15.0394
      vertex 71.55 0.936906 15.0886
      vertex 71.55 0.626666 15.0394
    endloop
  endfacet
  facet normal 0 -0.338735 0.940882
    outer loop
      vertex 71.55 1.84062 15.3511
      vertex 73.45 1.54508 15.2447
      vertex 73.45 1.84062 15.3511
    endloop
  endfacet
  facet normal 0 -0.338735 0.940882
    outer loop
      vertex 73.45 1.54508 15.2447
      vertex 71.55 1.84062 15.3511
      vertex 71.55 1.54508 15.2447
    endloop
  endfacet
  facet normal -0 0.999506 0.0314176
    outer loop
      vertex 70.1269 -4.99013 19.686
      vertex 73.45 -5 20
      vertex 73.45 -4.99013 19.686
    endloop
  endfacet
  facet normal 0 0.999506 0.0314176
    outer loop
      vertex 73.45 -5 20
      vertex 70.1269 -4.99013 19.686
      vertex 69.813 -5 20
    endloop
  endfacet
  facet normal 0 -0.987689 0.156432
    outer loop
      vertex 70.7499 4.91144 19.0631
      vertex 73.45 4.96057 19.3733
      vertex 70.4397 4.96057 19.3733
    endloop
  endfacet
  facet normal 0 -0.987689 0.156432
    outer loop
      vertex 73.45 4.96057 19.3733
      vertex 70.7499 4.91144 19.0631
      vertex 73.45 4.91144 19.0631
    endloop
  endfacet
  facet normal 0 0.860693 0.509124
    outer loop
      vertex 73.45 -4.22164 17.3209
      vertex 71.55 -4.38153 17.5912
      vertex 73.45 -4.38153 17.5912
    endloop
  endfacet
  facet normal 0 0.860693 0.509124
    outer loop
      vertex 71.55 -4.38153 17.5912
      vertex 73.45 -4.22164 17.3209
      vertex 71.55 -4.22164 17.3209
    endloop
  endfacet
  facet normal -0 0.987689 0.156432
    outer loop
      vertex 70.7499 -4.91144 19.0631
      vertex 73.45 -4.96057 19.3733
      vertex 73.45 -4.91144 19.0631
    endloop
  endfacet
  facet normal 0 0.987689 0.156432
    outer loop
      vertex 73.45 -4.96057 19.3733
      vertex 70.7499 -4.91144 19.0631
      vertex 70.4397 -4.96057 19.3733
    endloop
  endfacet
  facet normal 0 -0.0315178 0.999503
    outer loop
      vertex 71.55 0.313952 15.0099
      vertex 73.45 0 15
      vertex 73.45 0.313952 15.0099
    endloop
  endfacet
  facet normal 0 -0.0315178 0.999503
    outer loop
      vertex 73.45 0 15
      vertex 71.55 0.313952 15.0099
      vertex 71.55 0 15
    endloop
  endfacet
  facet normal -0 0.0315178 0.999503
    outer loop
      vertex 71.55 0 15
      vertex 73.45 -0.313952 15.0099
      vertex 73.45 0 15
    endloop
  endfacet
  facet normal 0 0.0315178 0.999503
    outer loop
      vertex 73.45 -0.313952 15.0099
      vertex 71.55 0 15
      vertex 71.55 -0.313952 15.0099
    endloop
  endfacet
  facet normal 0 -0.21808 0.975931
    outer loop
      vertex 71.55 1.24345 15.1571
      vertex 73.45 0.936906 15.0886
      vertex 73.45 1.24345 15.1571
    endloop
  endfacet
  facet normal 0 -0.21808 0.975931
    outer loop
      vertex 73.45 0.936906 15.0886
      vertex 71.55 1.24345 15.1571
      vertex 71.55 0.936906 15.0886
    endloop
  endfacet
  facet normal 0 -0.612875 0.79018
    outer loop
      vertex 71.55 3.18712 16.1474
      vertex 73.45 2.93893 15.9549
      vertex 73.45 3.18712 16.1474
    endloop
  endfacet
  facet normal 0 -0.612875 0.79018
    outer loop
      vertex 73.45 2.93893 15.9549
      vertex 71.55 3.18712 16.1474
      vertex 71.55 2.93893 15.9549
    endloop
  endfacet
  facet normal 0 -0.278898 0.960321
    outer loop
      vertex 71.55 1.54508 15.2447
      vertex 73.45 1.24345 15.1571
      vertex 73.45 1.54508 15.2447
    endloop
  endfacet
  facet normal 0 -0.278898 0.960321
    outer loop
      vertex 73.45 1.24345 15.1571
      vertex 71.55 1.54508 15.2447
      vertex 71.55 1.24345 15.1571
    endloop
  endfacet
  facet normal 0 -0.82708 0.562084
    outer loop
      vertex 71.55 4.04508 17.0611
      vertex 73.45 4.22164 17.3209
      vertex 71.55 4.22164 17.3209
    endloop
  endfacet
  facet normal 0 -0.82708 0.562084
    outer loop
      vertex 73.45 4.22164 17.3209
      vertex 71.55 4.04508 17.0611
      vertex 73.45 4.04508 17.0611
    endloop
  endfacet
  facet normal 0 0.891027 0.45395
    outer loop
      vertex 73.45 -4.38153 17.5912
      vertex 71.55 -4.52413 17.8711
      vertex 73.45 -4.52413 17.8711
    endloop
  endfacet
  facet normal 0 0.891027 0.45395
    outer loop
      vertex 71.55 -4.52413 17.8711
      vertex 73.45 -4.38153 17.5912
      vertex 71.55 -4.38153 17.5912
    endloop
  endfacet
  facet normal 0 -0.790176 0.61288
    outer loop
      vertex 71.55 3.85257 16.8129
      vertex 73.45 4.04508 17.0611
      vertex 71.55 4.04508 17.0611
    endloop
  endfacet
  facet normal 0 -0.790176 0.61288
    outer loop
      vertex 73.45 4.04508 17.0611
      vertex 71.55 3.85257 16.8129
      vertex 73.45 3.85257 16.8129
    endloop
  endfacet
  facet normal 0 -0.860693 0.509124
    outer loop
      vertex 71.55 4.22164 17.3209
      vertex 73.45 4.38153 17.5912
      vertex 71.55 4.38153 17.5912
    endloop
  endfacet
  facet normal 0 -0.860693 0.509124
    outer loop
      vertex 73.45 4.38153 17.5912
      vertex 71.55 4.22164 17.3209
      vertex 73.45 4.22164 17.3209
    endloop
  endfacet
  facet normal -0 0.397282 0.917696
    outer loop
      vertex 71.55 -1.84062 15.3511
      vertex 73.45 -2.1289 15.4759
      vertex 73.45 -1.84062 15.3511
    endloop
  endfacet
  facet normal 0 0.397282 0.917696
    outer loop
      vertex 73.45 -2.1289 15.4759
      vertex 71.55 -1.84062 15.3511
      vertex 71.55 -2.1289 15.4759
    endloop
  endfacet
  facet normal -0 0.338735 0.940882
    outer loop
      vertex 71.55 -1.54508 15.2447
      vertex 73.45 -1.84062 15.3511
      vertex 73.45 -1.54508 15.2447
    endloop
  endfacet
  facet normal 0 0.338735 0.940882
    outer loop
      vertex 73.45 -1.84062 15.3511
      vertex 71.55 -1.54508 15.2447
      vertex 71.55 -1.84062 15.3511
    endloop
  endfacet
  facet normal -0 0.278898 0.960321
    outer loop
      vertex 71.55 -1.24345 15.1571
      vertex 73.45 -1.54508 15.2447
      vertex 73.45 -1.24345 15.1571
    endloop
  endfacet
  facet normal 0 0.278898 0.960321
    outer loop
      vertex 73.45 -1.54508 15.2447
      vertex 71.55 -1.24345 15.1571
      vertex 71.55 -1.54508 15.2447
    endloop
  endfacet
  facet normal 0 -0.453988 0.891008
    outer loop
      vertex 71.55 2.40877 15.6185
      vertex 73.45 2.1289 15.4759
      vertex 73.45 2.40877 15.6185
    endloop
  endfacet
  facet normal 0 -0.453988 0.891008
    outer loop
      vertex 73.45 2.1289 15.4759
      vertex 71.55 2.40877 15.6185
      vertex 71.55 2.1289 15.4759
    endloop
  endfacet
  facet normal 0 -0.661443 0.749996
    outer loop
      vertex 71.55 3.42274 16.3552
      vertex 73.45 3.18712 16.1474
      vertex 73.45 3.42274 16.3552
    endloop
  endfacet
  facet normal 0 -0.661443 0.749996
    outer loop
      vertex 73.45 3.18712 16.1474
      vertex 71.55 3.42274 16.3552
      vertex 71.55 3.18712 16.1474
    endloop
  endfacet
  facet normal -0 0.15663 0.987657
    outer loop
      vertex 71.55 -0.626666 15.0394
      vertex 73.45 -0.936906 15.0886
      vertex 73.45 -0.626666 15.0394
    endloop
  endfacet
  facet normal 0 0.15663 0.987657
    outer loop
      vertex 73.45 -0.936906 15.0886
      vertex 71.55 -0.626666 15.0394
      vertex 71.55 -0.936906 15.0886
    endloop
  endfacet
  facet normal -0 0.612875 0.79018
    outer loop
      vertex 71.55 -2.93893 15.9549
      vertex 73.45 -3.18712 16.1474
      vertex 73.45 -2.93893 15.9549
    endloop
  endfacet
  facet normal 0 0.612875 0.79018
    outer loop
      vertex 73.45 -3.18712 16.1474
      vertex 71.55 -2.93893 15.9549
      vertex 71.55 -3.18712 16.1474
    endloop
  endfacet
  facet normal 0 -0.707107 0.707107
    outer loop
      vertex 71.55 3.64484 16.5773
      vertex 73.45 3.42274 16.3552
      vertex 73.45 3.64484 16.5773
    endloop
  endfacet
  facet normal 0 -0.707107 0.707107
    outer loop
      vertex 73.45 3.42274 16.3552
      vertex 71.55 3.64484 16.5773
      vertex 71.55 3.42274 16.3552
    endloop
  endfacet
  facet normal 0 -0.960279 0.279041
    outer loop
      vertex 71.3581 4.75528 18.4549
      vertex 73.45 4.84292 18.7565
      vertex 71.0564 4.84292 18.7565
    endloop
  endfacet
  facet normal 0 -0.960279 0.279041
    outer loop
      vertex 73.45 4.84292 18.7565
      vertex 71.3581 4.75528 18.4549
      vertex 73.45 4.75528 18.4549
    endloop
  endfacet
  facet normal 0 -0.917765 0.397125
    outer loop
      vertex 71.55 4.52413 17.8711
      vertex 73.45 4.64888 18.1594
      vertex 71.55 4.64888 18.1594
    endloop
  endfacet
  facet normal 0 -0.917765 0.397125
    outer loop
      vertex 73.45 4.64888 18.1594
      vertex 71.55 4.52413 17.8711
      vertex 73.45 4.52413 17.8711
    endloop
  endfacet
  facet normal 0 0.82708 0.562084
    outer loop
      vertex 73.45 -4.04508 17.0611
      vertex 71.55 -4.22164 17.3209
      vertex 73.45 -4.22164 17.3209
    endloop
  endfacet
  facet normal 0 0.82708 0.562084
    outer loop
      vertex 71.55 -4.22164 17.3209
      vertex 73.45 -4.04508 17.0611
      vertex 71.55 -4.04508 17.0611
    endloop
  endfacet
  facet normal -0 0.0939184 0.99558
    outer loop
      vertex 71.55 -0.313952 15.0099
      vertex 73.45 -0.626666 15.0394
      vertex 73.45 -0.313952 15.0099
    endloop
  endfacet
  facet normal 0 0.0939184 0.99558
    outer loop
      vertex 73.45 -0.626666 15.0394
      vertex 71.55 -0.313952 15.0099
      vertex 71.55 -0.626666 15.0394
    endloop
  endfacet
  facet normal 0 -0.509064 0.860729
    outer loop
      vertex 71.55 2.67913 15.7784
      vertex 73.45 2.40877 15.6185
      vertex 73.45 2.67913 15.7784
    endloop
  endfacet
  facet normal 0 -0.509064 0.860729
    outer loop
      vertex 73.45 2.40877 15.6185
      vertex 71.55 2.67913 15.7784
      vertex 71.55 2.40877 15.6185
    endloop
  endfacet
  facet normal 0 -0.750078 0.661349
    outer loop
      vertex 71.55 3.64484 16.5773
      vertex 73.45 3.85257 16.8129
      vertex 71.55 3.85257 16.8129
    endloop
  endfacet
  facet normal 0 -0.750078 0.661349
    outer loop
      vertex 73.45 3.85257 16.8129
      vertex 71.55 3.64484 16.5773
      vertex 73.45 3.64484 16.5773
    endloop
  endfacet
  facet normal 0 -0.891027 0.45395
    outer loop
      vertex 71.55 4.38153 17.5912
      vertex 73.45 4.52413 17.8711
      vertex 71.55 4.52413 17.8711
    endloop
  endfacet
  facet normal 0 -0.891027 0.45395
    outer loop
      vertex 73.45 4.52413 17.8711
      vertex 71.55 4.38153 17.5912
      vertex 73.45 4.38153 17.5912
    endloop
  endfacet
  facet normal 0 -0.0939184 0.99558
    outer loop
      vertex 71.55 0.626666 15.0394
      vertex 73.45 0.313952 15.0099
      vertex 73.45 0.626666 15.0394
    endloop
  endfacet
  facet normal 0 -0.0939184 0.99558
    outer loop
      vertex 73.45 0.313952 15.0099
      vertex 71.55 0.626666 15.0394
      vertex 71.55 0.313952 15.0099
    endloop
  endfacet
  facet normal -0 0.975926 0.218103
    outer loop
      vertex 71.0564 -4.84292 18.7565
      vertex 73.45 -4.91144 19.0631
      vertex 73.45 -4.84292 18.7565
    endloop
  endfacet
  facet normal 0 0.975926 0.218103
    outer loop
      vertex 73.45 -4.91144 19.0631
      vertex 71.0564 -4.84292 18.7565
      vertex 70.7499 -4.91144 19.0631
    endloop
  endfacet
  facet normal -0 -0.999507 -0.0313845
    outer loop
      vertex 73.45 5 20
      vertex 69.863 4.99843 20.05
      vertex 69.813 5 20
    endloop
  endfacet
  facet normal 0 -0.999507 -0.0313845
    outer loop
      vertex 69.863 4.99843 20.05
      vertex 73.45 5 20
      vertex 73.45 4.99843 20.05
    endloop
  endfacet
  facet normal 0 0.999507 -0.0313845
    outer loop
      vertex 73.45 -5 20
      vertex 69.863 -4.99843 20.05
      vertex 73.45 -4.99843 20.05
    endloop
  endfacet
  facet normal 0 0.999507 -0.0313845
    outer loop
      vertex 69.863 -4.99843 20.05
      vertex 73.45 -5 20
      vertex 69.813 -5 20
    endloop
  endfacet
  facet normal -0 0.21808 0.975931
    outer loop
      vertex 71.55 -0.936906 15.0886
      vertex 73.45 -1.24345 15.1571
      vertex 73.45 -0.936906 15.0886
    endloop
  endfacet
  facet normal 0 0.21808 0.975931
    outer loop
      vertex 73.45 -1.24345 15.1571
      vertex 71.55 -0.936906 15.0886
      vertex 71.55 -1.24345 15.1571
    endloop
  endfacet
  facet normal 0 -0.397282 0.917696
    outer loop
      vertex 71.55 2.1289 15.4759
      vertex 73.45 1.84062 15.3511
      vertex 73.45 2.1289 15.4759
    endloop
  endfacet
  facet normal 0 -0.397282 0.917696
    outer loop
      vertex 73.45 1.84062 15.3511
      vertex 71.55 2.1289 15.4759
      vertex 71.55 1.84062 15.3511
    endloop
  endfacet
  facet normal -0 0.453988 0.891008
    outer loop
      vertex 71.55 -2.1289 15.4759
      vertex 73.45 -2.40877 15.6185
      vertex 73.45 -2.1289 15.4759
    endloop
  endfacet
  facet normal 0 0.453988 0.891008
    outer loop
      vertex 73.45 -2.40877 15.6185
      vertex 71.55 -2.1289 15.4759
      vertex 71.55 -2.40877 15.6185
    endloop
  endfacet
  facet normal -0 0.995562 0.0941119
    outer loop
      vertex 70.4397 -4.96057 19.3733
      vertex 73.45 -4.99013 19.686
      vertex 73.45 -4.96057 19.3733
    endloop
  endfacet
  facet normal 0 0.995562 0.0941119
    outer loop
      vertex 73.45 -4.99013 19.686
      vertex 70.4397 -4.96057 19.3733
      vertex 70.1269 -4.99013 19.686
    endloop
  endfacet
  facet normal 0 -0.561953 0.827169
    outer loop
      vertex 71.55 2.93893 15.9549
      vertex 73.45 2.67913 15.7784
      vertex 73.45 2.93893 15.9549
    endloop
  endfacet
  facet normal 0 -0.561953 0.827169
    outer loop
      vertex 73.45 2.67913 15.7784
      vertex 71.55 2.93893 15.9549
      vertex 71.55 2.67913 15.7784
    endloop
  endfacet
  facet normal -0 0.561953 0.827169
    outer loop
      vertex 71.55 -2.67913 15.7784
      vertex 73.45 -2.93893 15.9549
      vertex 73.45 -2.67913 15.7784
    endloop
  endfacet
  facet normal 0 0.561953 0.827169
    outer loop
      vertex 73.45 -2.93893 15.9549
      vertex 71.55 -2.67913 15.7784
      vertex 71.55 -2.93893 15.9549
    endloop
  endfacet
  facet normal 0 0.940878 0.338746
    outer loop
      vertex 73.45 -4.75528 18.4549
      vertex 71.55 -4.68619 18.263
      vertex 71.3581 -4.75528 18.4549
    endloop
  endfacet
  facet normal -3.46049e-06 0.940867 0.338776
    outer loop
      vertex 73.45 -4.64888 18.1594
      vertex 71.55 -4.68619 18.263
      vertex 73.45 -4.75528 18.4549
    endloop
  endfacet
  facet normal 0 0.940847 0.338832
    outer loop
      vertex 71.55 -4.68619 18.263
      vertex 73.45 -4.64888 18.1594
      vertex 71.55 -4.64888 18.1594
    endloop
  endfacet
  facet normal -0 0.661443 0.749996
    outer loop
      vertex 71.55 -3.18712 16.1474
      vertex 73.45 -3.42274 16.3552
      vertex 73.45 -3.18712 16.1474
    endloop
  endfacet
  facet normal 0 0.661443 0.749996
    outer loop
      vertex 73.45 -3.42274 16.3552
      vertex 71.55 -3.18712 16.1474
      vertex 71.55 -3.42274 16.3552
    endloop
  endfacet
  facet normal 0 -0.975926 0.218103
    outer loop
      vertex 71.0564 4.84292 18.7565
      vertex 73.45 4.91144 19.0631
      vertex 70.7499 4.91144 19.0631
    endloop
  endfacet
  facet normal 0 -0.975926 0.218103
    outer loop
      vertex 73.45 4.91144 19.0631
      vertex 71.0564 4.84292 18.7565
      vertex 73.45 4.84292 18.7565
    endloop
  endfacet
  facet normal 0 0.750078 0.661349
    outer loop
      vertex 73.45 -3.64484 16.5773
      vertex 71.55 -3.85257 16.8129
      vertex 73.45 -3.85257 16.8129
    endloop
  endfacet
  facet normal 0 0.750078 0.661349
    outer loop
      vertex 71.55 -3.85257 16.8129
      vertex 73.45 -3.64484 16.5773
      vertex 71.55 -3.64484 16.5773
    endloop
  endfacet
  facet normal 0 -0.995562 0.0941119
    outer loop
      vertex 70.4397 4.96057 19.3733
      vertex 73.45 4.99013 19.686
      vertex 70.1269 4.99013 19.686
    endloop
  endfacet
  facet normal 0 -0.995562 0.0941119
    outer loop
      vertex 73.45 4.99013 19.686
      vertex 70.4397 4.96057 19.3733
      vertex 73.45 4.96057 19.3733
    endloop
  endfacet
  facet normal 0 -0.999506 0.0314176
    outer loop
      vertex 70.1269 4.99013 19.686
      vertex 73.45 5 20
      vertex 69.813 5 20
    endloop
  endfacet
  facet normal 0 -0.999506 0.0314176
    outer loop
      vertex 73.45 5 20
      vertex 70.1269 4.99013 19.686
      vertex 73.45 4.99013 19.686
    endloop
  endfacet
  facet normal -0 0.960279 0.279041
    outer loop
      vertex 71.3581 -4.75528 18.4549
      vertex 73.45 -4.84292 18.7565
      vertex 73.45 -4.75528 18.4549
    endloop
  endfacet
  facet normal 0 0.960279 0.279041
    outer loop
      vertex 73.45 -4.84292 18.7565
      vertex 71.3581 -4.75528 18.4549
      vertex 71.0564 -4.84292 18.7565
    endloop
  endfacet
  facet normal -0 0.707107 0.707107
    outer loop
      vertex 71.55 -3.42274 16.3552
      vertex 73.45 -3.64484 16.5773
      vertex 73.45 -3.42274 16.3552
    endloop
  endfacet
  facet normal 0 0.707107 0.707107
    outer loop
      vertex 73.45 -3.64484 16.5773
      vertex 71.55 -3.42274 16.3552
      vertex 71.55 -3.64484 16.5773
    endloop
  endfacet
  facet normal 0 0.917765 0.397125
    outer loop
      vertex 73.45 -4.52413 17.8711
      vertex 71.55 -4.64888 18.1594
      vertex 73.45 -4.64888 18.1594
    endloop
  endfacet
  facet normal 0 0.917765 0.397125
    outer loop
      vertex 71.55 -4.64888 18.1594
      vertex 73.45 -4.52413 17.8711
      vertex 71.55 -4.52413 17.8711
    endloop
  endfacet
  facet normal 0 -0.940878 0.338746
    outer loop
      vertex 71.55 4.68619 18.263
      vertex 73.45 4.75528 18.4549
      vertex 71.3581 4.75528 18.4549
    endloop
  endfacet
  facet normal 0 -0.940847 0.338832
    outer loop
      vertex 73.45 4.64888 18.1594
      vertex 71.55 4.68619 18.263
      vertex 71.55 4.64888 18.1594
    endloop
  endfacet
  facet normal -3.46049e-06 -0.940867 0.338776
    outer loop
      vertex 71.55 4.68619 18.263
      vertex 73.45 4.64888 18.1594
      vertex 73.45 4.75528 18.4549
    endloop
  endfacet
  facet normal -0 0.509064 0.860729
    outer loop
      vertex 71.55 -2.40877 15.6185
      vertex 73.45 -2.67913 15.7784
      vertex 73.45 -2.40877 15.6185
    endloop
  endfacet
  facet normal 0 0.509064 0.860729
    outer loop
      vertex 73.45 -2.67913 15.7784
      vertex 71.55 -2.40877 15.6185
      vertex 71.55 -2.67913 15.7784
    endloop
  endfacet
  facet normal 0 0.790176 0.61288
    outer loop
      vertex 73.45 -3.85257 16.8129
      vertex 71.55 -4.04508 17.0611
      vertex 73.45 -4.04508 17.0611
    endloop
  endfacet
  facet normal 0 0.790176 0.61288
    outer loop
      vertex 71.55 -4.04508 17.0611
      vertex 73.45 -3.85257 16.8129
      vertex 71.55 -3.85257 16.8129
    endloop
  endfacet
  facet normal -0 0 1
    outer loop
      vertex -72.5 23.75 0.95
      vertex 71.55 -23.75 0.95
      vertex 71.55 23.75 0.95
    endloop
  endfacet
  facet normal 0 0 1
    outer loop
      vertex 71.55 -23.75 0.95
      vertex -72.5 23.75 0.95
      vertex -72.5 -23.75 0.95
    endloop
  endfacet
  facet normal -1 0 0
    outer loop
      vertex -72.5 -23.75 -0.95
      vertex -72.5 23.75 0.95
      vertex -72.5 23.75 -0.95
    endloop
  endfacet
  facet normal -1 -0 0
    outer loop
      vertex -72.5 23.75 0.95
      vertex -72.5 -23.75 -0.95
      vertex -72.5 -23.75 0.95
    endloop
  endfacet
endsolid OpenSCAD_Model
