solid OpenSCAD_Model
  facet normal 1 0 0
    outer loop
      vertex 73.45 23.75 20.05
      vertex 73.45 5 10
      vertex 73.45 23.75 -0.95
    endloop
  endfacet
  facet normal 1 0 0
    outer loop
      vertex 73.45 23.75 20.05
      vertex 73.45 4.99013 10.314
      vertex 73.45 5 10
    endloop
  endfacet
  facet normal 1 0 0
    outer loop
      vertex 73.45 23.75 20.05
      vertex 73.45 4.96057 10.6267
      vertex 73.45 4.99013 10.314
    endloop
  endfacet
  facet normal 1 0 0
    outer loop
      vertex 73.45 23.75 20.05
      vertex 73.45 4.91144 10.9369
      vertex 73.45 4.96057 10.6267
    endloop
  endfacet
  facet normal 1 0 0
    outer loop
      vertex 73.45 23.75 20.05
      vertex 73.45 4.84292 11.2434
      vertex 73.45 4.91144 10.9369
    endloop
  endfacet
  facet normal 1 0 0
    outer loop
      vertex 73.45 23.75 20.05
      vertex 73.45 4.75528 11.5451
      vertex 73.45 4.84292 11.2434
    endloop
  endfacet
  facet normal 1 0 0
    outer loop
      vertex 73.45 23.75 20.05
      vertex 73.45 4.64888 11.8406
      vertex 73.45 4.75528 11.5451
    endloop
  endfacet
  facet normal 1 0 0
    outer loop
      vertex 73.45 23.75 20.05
      vertex 73.45 4.52413 12.1289
      vertex 73.45 4.64888 11.8406
    endloop
  endfacet
  facet normal 1 0 0
    outer loop
      vertex 73.45 23.75 20.05
      vertex 73.45 4.38153 12.4088
      vertex 73.45 4.52413 12.1289
    endloop
  endfacet
  facet normal 1 0 0
    outer loop
      vertex 73.45 23.75 20.05
      vertex 73.45 4.22164 12.6791
      vertex 73.45 4.38153 12.4088
    endloop
  endfacet
  facet normal 1 0 0
    outer loop
      vertex 73.45 23.75 20.05
      vertex 73.45 4.04508 12.9389
      vertex 73.45 4.22164 12.6791
    endloop
  endfacet
  facet normal 1 0 0
    outer loop
      vertex 73.45 23.75 20.05
      vertex 73.45 3.85257 13.1871
      vertex 73.45 4.04508 12.9389
    endloop
  endfacet
  facet normal 1 0 0
    outer loop
      vertex 73.45 23.75 20.05
      vertex 73.45 3.64484 13.4227
      vertex 73.45 3.85257 13.1871
    endloop
  endfacet
  facet normal 1 0 0
    outer loop
      vertex 73.45 23.75 20.05
      vertex 73.45 3.42274 13.6448
      vertex 73.45 3.64484 13.4227
    endloop
  endfacet
  facet normal 1 0 0
    outer loop
      vertex 73.45 23.75 20.05
      vertex 73.45 3.18712 13.8526
      vertex 73.45 3.42274 13.6448
    endloop
  endfacet
  facet normal 1 0 0
    outer loop
      vertex 73.45 23.75 20.05
      vertex 73.45 2.93893 14.0451
      vertex 73.45 3.18712 13.8526
    endloop
  endfacet
  facet normal 1 0 0
    outer loop
      vertex 73.45 23.75 20.05
      vertex 73.45 2.67913 14.2216
      vertex 73.45 2.93893 14.0451
    endloop
  endfacet
  facet normal 1 0 0
    outer loop
      vertex 73.45 23.75 20.05
      vertex 73.45 2.40877 14.3815
      vertex 73.45 2.67913 14.2216
    endloop
  endfacet
  facet normal 1 0 0
    outer loop
      vertex 73.45 23.75 20.05
      vertex 73.45 2.1289 14.5241
      vertex 73.45 2.40877 14.3815
    endloop
  endfacet
  facet normal 1 0 0
    outer loop
      vertex 73.45 23.75 20.05
      vertex 73.45 1.84062 14.6489
      vertex 73.45 2.1289 14.5241
    endloop
  endfacet
  facet normal 1 0 0
    outer loop
      vertex 73.45 23.75 20.05
      vertex 73.45 1.54508 14.7553
      vertex 73.45 1.84062 14.6489
    endloop
  endfacet
  facet normal 1 0 0
    outer loop
      vertex 73.45 23.75 20.05
      vertex 73.45 1.24345 14.8429
      vertex 73.45 1.54508 14.7553
    endloop
  endfacet
  facet normal 1 0 0
    outer loop
      vertex 73.45 23.75 20.05
      vertex 73.45 0.936906 14.9114
      vertex 73.45 1.24345 14.8429
    endloop
  endfacet
  facet normal 1 0 0
    outer loop
      vertex 73.45 23.75 20.05
      vertex 73.45 0.626666 14.9606
      vertex 73.45 0.936906 14.9114
    endloop
  endfacet
  facet normal 1 0 0
    outer loop
      vertex 73.45 23.75 20.05
      vertex 73.45 0.313952 14.9901
      vertex 73.45 0.626666 14.9606
    endloop
  endfacet
  facet normal 1 0 0
    outer loop
      vertex 73.45 23.75 20.05
      vertex 73.45 0 15
      vertex 73.45 0.313952 14.9901
    endloop
  endfacet
  facet normal 1 -0 0
    outer loop
      vertex 73.45 -23.75 20.05
      vertex 73.45 0 15
      vertex 73.45 23.75 20.05
    endloop
  endfacet
  facet normal 1 0 0
    outer loop
      vertex 73.45 0 15
      vertex 73.45 -23.75 20.05
      vertex 73.45 -0.313952 14.9901
    endloop
  endfacet
  facet normal 1 0 0
    outer loop
      vertex 73.45 -0.313952 14.9901
      vertex 73.45 -23.75 20.05
      vertex 73.45 -0.626666 14.9606
    endloop
  endfacet
  facet normal 1 0 0
    outer loop
      vertex 73.45 -4.99013 10.314
      vertex 73.45 -23.75 20.05
      vertex 73.45 -5 10
    endloop
  endfacet
  facet normal 1 0 0
    outer loop
      vertex 73.45 -4.96057 10.6267
      vertex 73.45 -23.75 20.05
      vertex 73.45 -4.99013 10.314
    endloop
  endfacet
  facet normal 1 0 0
    outer loop
      vertex 73.45 -4.91144 10.9369
      vertex 73.45 -23.75 20.05
      vertex 73.45 -4.96057 10.6267
    endloop
  endfacet
  facet normal 1 0 0
    outer loop
      vertex 73.45 -4.84292 11.2434
      vertex 73.45 -23.75 20.05
      vertex 73.45 -4.91144 10.9369
    endloop
  endfacet
  facet normal 1 0 0
    outer loop
      vertex 73.45 -4.75528 11.5451
      vertex 73.45 -23.75 20.05
      vertex 73.45 -4.84292 11.2434
    endloop
  endfacet
  facet normal 1 0 0
    outer loop
      vertex 73.45 -4.64888 11.8406
      vertex 73.45 -23.75 20.05
      vertex 73.45 -4.75528 11.5451
    endloop
  endfacet
  facet normal 1 0 0
    outer loop
      vertex 73.45 -4.52413 12.1289
      vertex 73.45 -23.75 20.05
      vertex 73.45 -4.64888 11.8406
    endloop
  endfacet
  facet normal 1 0 0
    outer loop
      vertex 73.45 -4.38153 12.4088
      vertex 73.45 -23.75 20.05
      vertex 73.45 -4.52413 12.1289
    endloop
  endfacet
  facet normal 1 0 0
    outer loop
      vertex 73.45 -4.22164 12.6791
      vertex 73.45 -23.75 20.05
      vertex 73.45 -4.38153 12.4088
    endloop
  endfacet
  facet normal 1 0 0
    outer loop
      vertex 73.45 -4.04508 12.9389
      vertex 73.45 -23.75 20.05
      vertex 73.45 -4.22164 12.6791
    endloop
  endfacet
  facet normal 1 0 0
    outer loop
      vertex 73.45 -3.85257 13.1871
      vertex 73.45 -23.75 20.05
      vertex 73.45 -4.04508 12.9389
    endloop
  endfacet
  facet normal 1 0 0
    outer loop
      vertex 73.45 -3.64484 13.4227
      vertex 73.45 -23.75 20.05
      vertex 73.45 -3.85257 13.1871
    endloop
  endfacet
  facet normal 1 0 0
    outer loop
      vertex 73.45 -3.42274 13.6448
      vertex 73.45 -23.75 20.05
      vertex 73.45 -3.64484 13.4227
    endloop
  endfacet
  facet normal 1 0 0
    outer loop
      vertex 73.45 -3.18712 13.8526
      vertex 73.45 -23.75 20.05
      vertex 73.45 -3.42274 13.6448
    endloop
  endfacet
  facet normal 1 0 0
    outer loop
      vertex 73.45 -2.93893 14.0451
      vertex 73.45 -23.75 20.05
      vertex 73.45 -3.18712 13.8526
    endloop
  endfacet
  facet normal 1 0 0
    outer loop
      vertex 73.45 -2.67913 14.2216
      vertex 73.45 -23.75 20.05
      vertex 73.45 -2.93893 14.0451
    endloop
  endfacet
  facet normal 1 0 0
    outer loop
      vertex 73.45 -2.40877 14.3815
      vertex 73.45 -23.75 20.05
      vertex 73.45 -2.67913 14.2216
    endloop
  endfacet
  facet normal 1 0 0
    outer loop
      vertex 73.45 -2.1289 14.5241
      vertex 73.45 -23.75 20.05
      vertex 73.45 -2.40877 14.3815
    endloop
  endfacet
  facet normal 1 0 0
    outer loop
      vertex 73.45 -1.84062 14.6489
      vertex 73.45 -23.75 20.05
      vertex 73.45 -2.1289 14.5241
    endloop
  endfacet
  facet normal 1 0 0
    outer loop
      vertex 73.45 -1.54508 14.7553
      vertex 73.45 -23.75 20.05
      vertex 73.45 -1.84062 14.6489
    endloop
  endfacet
  facet normal 1 0 0
    outer loop
      vertex 73.45 -1.24345 14.8429
      vertex 73.45 -23.75 20.05
      vertex 73.45 -1.54508 14.7553
    endloop
  endfacet
  facet normal 1 0 0
    outer loop
      vertex 73.45 -0.936906 14.9114
      vertex 73.45 -23.75 20.05
      vertex 73.45 -1.24345 14.8429
    endloop
  endfacet
  facet normal 1 0 0
    outer loop
      vertex 73.45 -0.626666 14.9606
      vertex 73.45 -23.75 20.05
      vertex 73.45 -0.936906 14.9114
    endloop
  endfacet
  facet normal 1 -0 0
    outer loop
      vertex 73.45 4.99013 9.68605
      vertex 73.45 23.75 -0.95
      vertex 73.45 5 10
    endloop
  endfacet
  facet normal 1 -0 0
    outer loop
      vertex 73.45 4.96057 9.37333
      vertex 73.45 23.75 -0.95
      vertex 73.45 4.99013 9.68605
    endloop
  endfacet
  facet normal 1 -0 0
    outer loop
      vertex 73.45 4.91144 9.06309
      vertex 73.45 23.75 -0.95
      vertex 73.45 4.96057 9.37333
    endloop
  endfacet
  facet normal 1 -0 0
    outer loop
      vertex 73.45 4.84292 8.75655
      vertex 73.45 23.75 -0.95
      vertex 73.45 4.91144 9.06309
    endloop
  endfacet
  facet normal 1 -0 0
    outer loop
      vertex 73.45 4.75528 8.45491
      vertex 73.45 23.75 -0.95
      vertex 73.45 4.84292 8.75655
    endloop
  endfacet
  facet normal 1 -0 0
    outer loop
      vertex 73.45 4.64888 8.15938
      vertex 73.45 23.75 -0.95
      vertex 73.45 4.75528 8.45491
    endloop
  endfacet
  facet normal 1 -0 0
    outer loop
      vertex 73.45 4.52413 7.8711
      vertex 73.45 23.75 -0.95
      vertex 73.45 4.64888 8.15938
    endloop
  endfacet
  facet normal 1 -0 0
    outer loop
      vertex 73.45 4.38153 7.59123
      vertex 73.45 23.75 -0.95
      vertex 73.45 4.52413 7.8711
    endloop
  endfacet
  facet normal 1 -0 0
    outer loop
      vertex 73.45 4.22164 7.32087
      vertex 73.45 23.75 -0.95
      vertex 73.45 4.38153 7.59123
    endloop
  endfacet
  facet normal 1 -0 0
    outer loop
      vertex 73.45 4.04508 7.06107
      vertex 73.45 23.75 -0.95
      vertex 73.45 4.22164 7.32087
    endloop
  endfacet
  facet normal 1 -0 0
    outer loop
      vertex 73.45 3.85257 6.81288
      vertex 73.45 23.75 -0.95
      vertex 73.45 4.04508 7.06107
    endloop
  endfacet
  facet normal 1 -0 0
    outer loop
      vertex 73.45 3.64484 6.57726
      vertex 73.45 23.75 -0.95
      vertex 73.45 3.85257 6.81288
    endloop
  endfacet
  facet normal 1 -0 0
    outer loop
      vertex 73.45 3.42274 6.35516
      vertex 73.45 23.75 -0.95
      vertex 73.45 3.64484 6.57726
    endloop
  endfacet
  facet normal 1 -0 0
    outer loop
      vertex 73.45 3.18712 6.14743
      vertex 73.45 23.75 -0.95
      vertex 73.45 3.42274 6.35516
    endloop
  endfacet
  facet normal 1 -0 0
    outer loop
      vertex 73.45 2.93893 5.95491
      vertex 73.45 23.75 -0.95
      vertex 73.45 3.18712 6.14743
    endloop
  endfacet
  facet normal 1 -0 0
    outer loop
      vertex 73.45 2.67913 5.77836
      vertex 73.45 23.75 -0.95
      vertex 73.45 2.93893 5.95491
    endloop
  endfacet
  facet normal 1 -0 0
    outer loop
      vertex 73.45 2.40877 5.61847
      vertex 73.45 23.75 -0.95
      vertex 73.45 2.67913 5.77836
    endloop
  endfacet
  facet normal 1 -0 0
    outer loop
      vertex 73.45 2.1289 5.47586
      vertex 73.45 23.75 -0.95
      vertex 73.45 2.40877 5.61847
    endloop
  endfacet
  facet normal 1 -0 0
    outer loop
      vertex 73.45 1.84062 5.35112
      vertex 73.45 23.75 -0.95
      vertex 73.45 2.1289 5.47586
    endloop
  endfacet
  facet normal 1 -0 0
    outer loop
      vertex 73.45 1.54508 5.24472
      vertex 73.45 23.75 -0.95
      vertex 73.45 1.84062 5.35112
    endloop
  endfacet
  facet normal 1 -0 0
    outer loop
      vertex 73.45 1.24345 5.15708
      vertex 73.45 23.75 -0.95
      vertex 73.45 1.54508 5.24472
    endloop
  endfacet
  facet normal 1 -0 0
    outer loop
      vertex 73.45 0.936906 5.08856
      vertex 73.45 23.75 -0.95
      vertex 73.45 1.24345 5.15708
    endloop
  endfacet
  facet normal 1 -0 0
    outer loop
      vertex 73.45 0.626666 5.03943
      vertex 73.45 23.75 -0.95
      vertex 73.45 0.936906 5.08856
    endloop
  endfacet
  facet normal 1 -0 0
    outer loop
      vertex 73.45 0.313952 5.00987
      vertex 73.45 23.75 -0.95
      vertex 73.45 0.626666 5.03943
    endloop
  endfacet
  facet normal 1 -0 0
    outer loop
      vertex 73.45 0 5
      vertex 73.45 23.75 -0.95
      vertex 73.45 0.313952 5.00987
    endloop
  endfacet
  facet normal 1 0 0
    outer loop
      vertex 73.45 -23.75 -0.95
      vertex 73.45 0 5
      vertex 73.45 -0.313952 5.00987
    endloop
  endfacet
  facet normal 1 0 0
    outer loop
      vertex 73.45 -23.75 -0.95
      vertex 73.45 -0.313952 5.00987
      vertex 73.45 -0.626666 5.03943
    endloop
  endfacet
  facet normal 1 0 0
    outer loop
      vertex 73.45 -23.75 -0.95
      vertex 73.45 -0.626666 5.03943
      vertex 73.45 -0.936906 5.08856
    endloop
  endfacet
  facet normal 1 0 0
    outer loop
      vertex 73.45 -23.75 -0.95
      vertex 73.45 -0.936906 5.08856
      vertex 73.45 -1.24345 5.15708
    endloop
  endfacet
  facet normal 1 0 0
    outer loop
      vertex 73.45 -23.75 20.05
      vertex 73.45 -4.99013 9.68605
      vertex 73.45 -5 10
    endloop
  endfacet
  facet normal 1 0 0
    outer loop
      vertex 73.45 -23.75 -0.95
      vertex 73.45 -4.99013 9.68605
      vertex 73.45 -23.75 20.05
    endloop
  endfacet
  facet normal 1 0 0
    outer loop
      vertex 73.45 -4.99013 9.68605
      vertex 73.45 -23.75 -0.95
      vertex 73.45 -4.96057 9.37333
    endloop
  endfacet
  facet normal 1 0 0
    outer loop
      vertex 73.45 -4.96057 9.37333
      vertex 73.45 -23.75 -0.95
      vertex 73.45 -4.91144 9.06309
    endloop
  endfacet
  facet normal 1 0 0
    outer loop
      vertex 73.45 -4.91144 9.06309
      vertex 73.45 -23.75 -0.95
      vertex 73.45 -4.84292 8.75655
    endloop
  endfacet
  facet normal 1 0 0
    outer loop
      vertex 73.45 -4.84292 8.75655
      vertex 73.45 -23.75 -0.95
      vertex 73.45 -4.75528 8.45491
    endloop
  endfacet
  facet normal 1 0 0
    outer loop
      vertex 73.45 -4.75528 8.45491
      vertex 73.45 -23.75 -0.95
      vertex 73.45 -4.64888 8.15938
    endloop
  endfacet
  facet normal 1 0 0
    outer loop
      vertex 73.45 -4.64888 8.15938
      vertex 73.45 -23.75 -0.95
      vertex 73.45 -4.52413 7.8711
    endloop
  endfacet
  facet normal 1 0 0
    outer loop
      vertex 73.45 -4.52413 7.8711
      vertex 73.45 -23.75 -0.95
      vertex 73.45 -4.38153 7.59123
    endloop
  endfacet
  facet normal 1 0 0
    outer loop
      vertex 73.45 -4.38153 7.59123
      vertex 73.45 -23.75 -0.95
      vertex 73.45 -4.22164 7.32087
    endloop
  endfacet
  facet normal 1 0 0
    outer loop
      vertex 73.45 -4.22164 7.32087
      vertex 73.45 -23.75 -0.95
      vertex 73.45 -4.04508 7.06107
    endloop
  endfacet
  facet normal 1 0 0
    outer loop
      vertex 73.45 -4.04508 7.06107
      vertex 73.45 -23.75 -0.95
      vertex 73.45 -3.85257 6.81288
    endloop
  endfacet
  facet normal 1 0 0
    outer loop
      vertex 73.45 -3.85257 6.81288
      vertex 73.45 -23.75 -0.95
      vertex 73.45 -3.64484 6.57726
    endloop
  endfacet
  facet normal 1 0 0
    outer loop
      vertex 73.45 -3.64484 6.57726
      vertex 73.45 -23.75 -0.95
      vertex 73.45 -3.42274 6.35516
    endloop
  endfacet
  facet normal 1 0 0
    outer loop
      vertex 73.45 -3.42274 6.35516
      vertex 73.45 -23.75 -0.95
      vertex 73.45 -3.18712 6.14743
    endloop
  endfacet
  facet normal 1 0 0
    outer loop
      vertex 73.45 -3.18712 6.14743
      vertex 73.45 -23.75 -0.95
      vertex 73.45 -2.93893 5.95491
    endloop
  endfacet
  facet normal 1 0 0
    outer loop
      vertex 73.45 0 5
      vertex 73.45 -23.75 -0.95
      vertex 73.45 23.75 -0.95
    endloop
  endfacet
  facet normal 1 0 0
    outer loop
      vertex 73.45 -1.54508 5.24472
      vertex 73.45 -23.75 -0.95
      vertex 73.45 -1.24345 5.15708
    endloop
  endfacet
  facet normal 1 0 0
    outer loop
      vertex 73.45 -1.84062 5.35112
      vertex 73.45 -23.75 -0.95
      vertex 73.45 -1.54508 5.24472
    endloop
  endfacet
  facet normal 1 0 0
    outer loop
      vertex 73.45 -2.1289 5.47586
      vertex 73.45 -23.75 -0.95
      vertex 73.45 -1.84062 5.35112
    endloop
  endfacet
  facet normal 1 0 0
    outer loop
      vertex 73.45 -2.40877 5.61847
      vertex 73.45 -23.75 -0.95
      vertex 73.45 -2.1289 5.47586
    endloop
  endfacet
  facet normal 1 0 0
    outer loop
      vertex 73.45 -2.67913 5.77836
      vertex 73.45 -23.75 -0.95
      vertex 73.45 -2.40877 5.61847
    endloop
  endfacet
  facet normal 1 0 0
    outer loop
      vertex 73.45 -2.93893 5.95491
      vertex 73.45 -23.75 -0.95
      vertex 73.45 -2.67913 5.77836
    endloop
  endfacet
  facet normal 0 0 -1
    outer loop
      vertex -72.5 -23.75 -0.95
      vertex 73.45 23.75 -0.95
      vertex 73.45 -23.75 -0.95
    endloop
  endfacet
  facet normal -0 0 -1
    outer loop
      vertex 73.45 23.75 -0.95
      vertex -72.5 -23.75 -0.95
      vertex -72.5 23.75 -0.95
    endloop
  endfacet
  facet normal -1 0 0
    outer loop
      vertex 71.55 23.75 0.95
      vertex 71.55 5 10
      vertex 71.55 23.75 18.263
    endloop
  endfacet
  facet normal -1 0 0
    outer loop
      vertex 71.55 23.75 0.95
      vertex 71.55 4.99013 9.68605
      vertex 71.55 5 10
    endloop
  endfacet
  facet normal -1 0 0
    outer loop
      vertex 71.55 23.75 0.95
      vertex 71.55 4.96057 9.37333
      vertex 71.55 4.99013 9.68605
    endloop
  endfacet
  facet normal -1 0 0
    outer loop
      vertex 71.55 23.75 0.95
      vertex 71.55 4.91144 9.06309
      vertex 71.55 4.96057 9.37333
    endloop
  endfacet
  facet normal -1 0 0
    outer loop
      vertex 71.55 23.75 0.95
      vertex 71.55 4.84292 8.75655
      vertex 71.55 4.91144 9.06309
    endloop
  endfacet
  facet normal -1 0 0
    outer loop
      vertex 71.55 23.75 0.95
      vertex 71.55 4.75528 8.45491
      vertex 71.55 4.84292 8.75655
    endloop
  endfacet
  facet normal -1 0 0
    outer loop
      vertex 71.55 23.75 0.95
      vertex 71.55 4.64888 8.15938
      vertex 71.55 4.75528 8.45491
    endloop
  endfacet
  facet normal -1 0 0
    outer loop
      vertex 71.55 23.75 0.95
      vertex 71.55 4.52413 7.8711
      vertex 71.55 4.64888 8.15938
    endloop
  endfacet
  facet normal -1 0 0
    outer loop
      vertex 71.55 23.75 0.95
      vertex 71.55 4.38153 7.59123
      vertex 71.55 4.52413 7.8711
    endloop
  endfacet
  facet normal -1 0 0
    outer loop
      vertex 71.55 23.75 0.95
      vertex 71.55 4.22164 7.32087
      vertex 71.55 4.38153 7.59123
    endloop
  endfacet
  facet normal -1 0 0
    outer loop
      vertex 71.55 23.75 0.95
      vertex 71.55 4.04508 7.06107
      vertex 71.55 4.22164 7.32087
    endloop
  endfacet
  facet normal -1 0 0
    outer loop
      vertex 71.55 23.75 0.95
      vertex 71.55 3.85257 6.81288
      vertex 71.55 4.04508 7.06107
    endloop
  endfacet
  facet normal -1 0 0
    outer loop
      vertex 71.55 23.75 0.95
      vertex 71.55 3.64484 6.57726
      vertex 71.55 3.85257 6.81288
    endloop
  endfacet
  facet normal -1 0 0
    outer loop
      vertex 71.55 23.75 0.95
      vertex 71.55 3.42274 6.35516
      vertex 71.55 3.64484 6.57726
    endloop
  endfacet
  facet normal -1 0 0
    outer loop
      vertex 71.55 23.75 0.95
      vertex 71.55 3.18712 6.14743
      vertex 71.55 3.42274 6.35516
    endloop
  endfacet
  facet normal -1 0 0
    outer loop
      vertex 71.55 23.75 0.95
      vertex 71.55 2.93893 5.95491
      vertex 71.55 3.18712 6.14743
    endloop
  endfacet
  facet normal -1 0 0
    outer loop
      vertex 71.55 23.75 0.95
      vertex 71.55 2.67913 5.77836
      vertex 71.55 2.93893 5.95491
    endloop
  endfacet
  facet normal -1 0 0
    outer loop
      vertex 71.55 23.75 0.95
      vertex 71.55 2.40877 5.61847
      vertex 71.55 2.67913 5.77836
    endloop
  endfacet
  facet normal -1 0 0
    outer loop
      vertex 71.55 23.75 0.95
      vertex 71.55 2.1289 5.47586
      vertex 71.55 2.40877 5.61847
    endloop
  endfacet
  facet normal -1 0 0
    outer loop
      vertex 71.55 23.75 0.95
      vertex 71.55 1.84062 5.35112
      vertex 71.55 2.1289 5.47586
    endloop
  endfacet
  facet normal -1 0 0
    outer loop
      vertex 71.55 23.75 0.95
      vertex 71.55 1.54508 5.24472
      vertex 71.55 1.84062 5.35112
    endloop
  endfacet
  facet normal -1 0 0
    outer loop
      vertex 71.55 23.75 0.95
      vertex 71.55 1.24345 5.15708
      vertex 71.55 1.54508 5.24472
    endloop
  endfacet
  facet normal -1 0 0
    outer loop
      vertex 71.55 23.75 0.95
      vertex 71.55 0.936906 5.08856
      vertex 71.55 1.24345 5.15708
    endloop
  endfacet
  facet normal -1 0 0
    outer loop
      vertex 71.55 23.75 0.95
      vertex 71.55 0.626666 5.03943
      vertex 71.55 0.936906 5.08856
    endloop
  endfacet
  facet normal -1 0 0
    outer loop
      vertex 71.55 23.75 0.95
      vertex 71.55 0.313952 5.00987
      vertex 71.55 0.626666 5.03943
    endloop
  endfacet
  facet normal -1 0 0
    outer loop
      vertex 71.55 23.75 0.95
      vertex 71.55 0 5
      vertex 71.55 0.313952 5.00987
    endloop
  endfacet
  facet normal -1 0 0
    outer loop
      vertex 71.55 -23.75 0.95
      vertex 71.55 0 5
      vertex 71.55 23.75 0.95
    endloop
  endfacet
  facet normal -1 -0 0
    outer loop
      vertex 71.55 0 5
      vertex 71.55 -23.75 0.95
      vertex 71.55 -0.313952 5.00987
    endloop
  endfacet
  facet normal -1 -0 0
    outer loop
      vertex 71.55 -0.313952 5.00987
      vertex 71.55 -23.75 0.95
      vertex 71.55 -0.626666 5.03943
    endloop
  endfacet
  facet normal -1 -0 0
    outer loop
      vertex 71.55 -4.99013 9.68605
      vertex 71.55 -23.75 0.95
      vertex 71.55 -5 10
    endloop
  endfacet
  facet normal -1 -0 0
    outer loop
      vertex 71.55 -4.96057 9.37333
      vertex 71.55 -23.75 0.95
      vertex 71.55 -4.99013 9.68605
    endloop
  endfacet
  facet normal -1 -0 0
    outer loop
      vertex 71.55 -4.91144 9.06309
      vertex 71.55 -23.75 0.95
      vertex 71.55 -4.96057 9.37333
    endloop
  endfacet
  facet normal -1 -0 0
    outer loop
      vertex 71.55 -4.84292 8.75655
      vertex 71.55 -23.75 0.95
      vertex 71.55 -4.91144 9.06309
    endloop
  endfacet
  facet normal -1 -0 0
    outer loop
      vertex 71.55 -4.75528 8.45491
      vertex 71.55 -23.75 0.95
      vertex 71.55 -4.84292 8.75655
    endloop
  endfacet
  facet normal -1 -0 0
    outer loop
      vertex 71.55 -4.64888 8.15938
      vertex 71.55 -23.75 0.95
      vertex 71.55 -4.75528 8.45491
    endloop
  endfacet
  facet normal -1 -0 0
    outer loop
      vertex 71.55 -4.52413 7.8711
      vertex 71.55 -23.75 0.95
      vertex 71.55 -4.64888 8.15938
    endloop
  endfacet
  facet normal -1 -0 0
    outer loop
      vertex 71.55 -4.38153 7.59123
      vertex 71.55 -23.75 0.95
      vertex 71.55 -4.52413 7.8711
    endloop
  endfacet
  facet normal -1 -0 0
    outer loop
      vertex 71.55 -4.22164 7.32087
      vertex 71.55 -23.75 0.95
      vertex 71.55 -4.38153 7.59123
    endloop
  endfacet
  facet normal -1 -0 0
    outer loop
      vertex 71.55 -4.04508 7.06107
      vertex 71.55 -23.75 0.95
      vertex 71.55 -4.22164 7.32087
    endloop
  endfacet
  facet normal -1 -0 0
    outer loop
      vertex 71.55 -3.85257 6.81288
      vertex 71.55 -23.75 0.95
      vertex 71.55 -4.04508 7.06107
    endloop
  endfacet
  facet normal -1 -0 0
    outer loop
      vertex 71.55 -3.64484 6.57726
      vertex 71.55 -23.75 0.95
      vertex 71.55 -3.85257 6.81288
    endloop
  endfacet
  facet normal -1 -0 0
    outer loop
      vertex 71.55 -3.42274 6.35516
      vertex 71.55 -23.75 0.95
      vertex 71.55 -3.64484 6.57726
    endloop
  endfacet
  facet normal -1 -0 0
    outer loop
      vertex 71.55 -3.18712 6.14743
      vertex 71.55 -23.75 0.95
      vertex 71.55 -3.42274 6.35516
    endloop
  endfacet
  facet normal -1 -0 0
    outer loop
      vertex 71.55 -2.93893 5.95491
      vertex 71.55 -23.75 0.95
      vertex 71.55 -3.18712 6.14743
    endloop
  endfacet
  facet normal -1 -0 0
    outer loop
      vertex 71.55 -2.67913 5.77836
      vertex 71.55 -23.75 0.95
      vertex 71.55 -2.93893 5.95491
    endloop
  endfacet
  facet normal -1 -0 0
    outer loop
      vertex 71.55 -2.40877 5.61847
      vertex 71.55 -23.75 0.95
      vertex 71.55 -2.67913 5.77836
    endloop
  endfacet
  facet normal -1 -0 0
    outer loop
      vertex 71.55 -2.1289 5.47586
      vertex 71.55 -23.75 0.95
      vertex 71.55 -2.40877 5.61847
    endloop
  endfacet
  facet normal -1 -0 0
    outer loop
      vertex 71.55 -1.84062 5.35112
      vertex 71.55 -23.75 0.95
      vertex 71.55 -2.1289 5.47586
    endloop
  endfacet
  facet normal -1 -0 0
    outer loop
      vertex 71.55 -1.54508 5.24472
      vertex 71.55 -23.75 0.95
      vertex 71.55 -1.84062 5.35112
    endloop
  endfacet
  facet normal -1 -0 0
    outer loop
      vertex 71.55 -1.24345 5.15708
      vertex 71.55 -23.75 0.95
      vertex 71.55 -1.54508 5.24472
    endloop
  endfacet
  facet normal -1 -0 0
    outer loop
      vertex 71.55 -0.936906 5.08856
      vertex 71.55 -23.75 0.95
      vertex 71.55 -1.24345 5.15708
    endloop
  endfacet
  facet normal -1 -0 0
    outer loop
      vertex 71.55 -0.626666 5.03943
      vertex 71.55 -23.75 0.95
      vertex 71.55 -0.936906 5.08856
    endloop
  endfacet
  facet normal -1 0 0
    outer loop
      vertex 71.55 4.99013 10.314
      vertex 71.55 23.75 18.263
      vertex 71.55 5 10
    endloop
  endfacet
  facet normal -1 0 0
    outer loop
      vertex 71.55 4.96057 10.6267
      vertex 71.55 23.75 18.263
      vertex 71.55 4.99013 10.314
    endloop
  endfacet
  facet normal -1 0 0
    outer loop
      vertex 71.55 4.91144 10.9369
      vertex 71.55 23.75 18.263
      vertex 71.55 4.96057 10.6267
    endloop
  endfacet
  facet normal -1 0 0
    outer loop
      vertex 71.55 4.84292 11.2434
      vertex 71.55 23.75 18.263
      vertex 71.55 4.91144 10.9369
    endloop
  endfacet
  facet normal -1 0 0
    outer loop
      vertex 71.55 4.75528 11.5451
      vertex 71.55 23.75 18.263
      vertex 71.55 4.84292 11.2434
    endloop
  endfacet
  facet normal -1 0 0
    outer loop
      vertex 71.55 4.64888 11.8406
      vertex 71.55 23.75 18.263
      vertex 71.55 4.75528 11.5451
    endloop
  endfacet
  facet normal -1 0 0
    outer loop
      vertex 71.55 4.52413 12.1289
      vertex 71.55 23.75 18.263
      vertex 71.55 4.64888 11.8406
    endloop
  endfacet
  facet normal -1 0 0
    outer loop
      vertex 71.55 4.38153 12.4088
      vertex 71.55 23.75 18.263
      vertex 71.55 4.52413 12.1289
    endloop
  endfacet
  facet normal -1 0 0
    outer loop
      vertex 71.55 4.22164 12.6791
      vertex 71.55 23.75 18.263
      vertex 71.55 4.38153 12.4088
    endloop
  endfacet
  facet normal -1 0 0
    outer loop
      vertex 71.55 4.04508 12.9389
      vertex 71.55 23.75 18.263
      vertex 71.55 4.22164 12.6791
    endloop
  endfacet
  facet normal -1 0 0
    outer loop
      vertex 71.55 3.85257 13.1871
      vertex 71.55 23.75 18.263
      vertex 71.55 4.04508 12.9389
    endloop
  endfacet
  facet normal -1 0 0
    outer loop
      vertex 71.55 3.64484 13.4227
      vertex 71.55 23.75 18.263
      vertex 71.55 3.85257 13.1871
    endloop
  endfacet
  facet normal -1 0 0
    outer loop
      vertex 71.55 3.42274 13.6448
      vertex 71.55 23.75 18.263
      vertex 71.55 3.64484 13.4227
    endloop
  endfacet
  facet normal -1 0 0
    outer loop
      vertex 71.55 3.18712 13.8526
      vertex 71.55 23.75 18.263
      vertex 71.55 3.42274 13.6448
    endloop
  endfacet
  facet normal -1 0 0
    outer loop
      vertex 71.55 2.93893 14.0451
      vertex 71.55 23.75 18.263
      vertex 71.55 3.18712 13.8526
    endloop
  endfacet
  facet normal -1 0 0
    outer loop
      vertex 71.55 2.67913 14.2216
      vertex 71.55 23.75 18.263
      vertex 71.55 2.93893 14.0451
    endloop
  endfacet
  facet normal -1 0 0
    outer loop
      vertex 71.55 2.40877 14.3815
      vertex 71.55 23.75 18.263
      vertex 71.55 2.67913 14.2216
    endloop
  endfacet
  facet normal -1 0 0
    outer loop
      vertex 71.55 2.1289 14.5241
      vertex 71.55 23.75 18.263
      vertex 71.55 2.40877 14.3815
    endloop
  endfacet
  facet normal -1 0 0
    outer loop
      vertex 71.55 1.84062 14.6489
      vertex 71.55 23.75 18.263
      vertex 71.55 2.1289 14.5241
    endloop
  endfacet
  facet normal -1 0 0
    outer loop
      vertex 71.55 1.54508 14.7553
      vertex 71.55 23.75 18.263
      vertex 71.55 1.84062 14.6489
    endloop
  endfacet
  facet normal -1 0 0
    outer loop
      vertex 71.55 1.24345 14.8429
      vertex 71.55 23.75 18.263
      vertex 71.55 1.54508 14.7553
    endloop
  endfacet
  facet normal -1 0 0
    outer loop
      vertex 71.55 0.936906 14.9114
      vertex 71.55 23.75 18.263
      vertex 71.55 1.24345 14.8429
    endloop
  endfacet
  facet normal -1 0 0
    outer loop
      vertex 71.55 0.626666 14.9606
      vertex 71.55 23.75 18.263
      vertex 71.55 0.936906 14.9114
    endloop
  endfacet
  facet normal -1 0 0
    outer loop
      vertex 71.55 0.313952 14.9901
      vertex 71.55 23.75 18.263
      vertex 71.55 0.626666 14.9606
    endloop
  endfacet
  facet normal -1 0 0
    outer loop
      vertex 71.55 0 15
      vertex 71.55 23.75 18.263
      vertex 71.55 0.313952 14.9901
    endloop
  endfacet
  facet normal -1 0 0
    outer loop
      vertex 71.55 -23.75 18.263
      vertex 71.55 0 15
      vertex 71.55 -0.313952 14.9901
    endloop
  endfacet
  facet normal -1 0 0
    outer loop
      vertex 71.55 -23.75 18.263
      vertex 71.55 -0.313952 14.9901
      vertex 71.55 -0.626666 14.9606
    endloop
  endfacet
  facet normal -1 0 0
    outer loop
      vertex 71.55 -23.75 18.263
      vertex 71.55 -5 10
      vertex 71.55 -23.75 0.95
    endloop
  endfacet
  facet normal -1 0 0
    outer loop
      vertex 71.55 -5 10
      vertex 71.55 -23.75 18.263
      vertex 71.55 -4.99013 10.314
    endloop
  endfacet
  facet normal -1 0 0
    outer loop
      vertex 71.55 -4.99013 10.314
      vertex 71.55 -23.75 18.263
      vertex 71.55 -4.96057 10.6267
    endloop
  endfacet
  facet normal -1 0 0
    outer loop
      vertex 71.55 -4.96057 10.6267
      vertex 71.55 -23.75 18.263
      vertex 71.55 -4.91144 10.9369
    endloop
  endfacet
  facet normal -1 0 0
    outer loop
      vertex 71.55 -4.91144 10.9369
      vertex 71.55 -23.75 18.263
      vertex 71.55 -4.84292 11.2434
    endloop
  endfacet
  facet normal -1 0 0
    outer loop
      vertex 71.55 -4.84292 11.2434
      vertex 71.55 -23.75 18.263
      vertex 71.55 -4.75528 11.5451
    endloop
  endfacet
  facet normal -1 0 0
    outer loop
      vertex 71.55 -4.75528 11.5451
      vertex 71.55 -23.75 18.263
      vertex 71.55 -4.64888 11.8406
    endloop
  endfacet
  facet normal -1 0 0
    outer loop
      vertex 71.55 -4.64888 11.8406
      vertex 71.55 -23.75 18.263
      vertex 71.55 -4.52413 12.1289
    endloop
  endfacet
  facet normal -1 0 0
    outer loop
      vertex 71.55 -4.52413 12.1289
      vertex 71.55 -23.75 18.263
      vertex 71.55 -4.38153 12.4088
    endloop
  endfacet
  facet normal -1 0 0
    outer loop
      vertex 71.55 -4.38153 12.4088
      vertex 71.55 -23.75 18.263
      vertex 71.55 -4.22164 12.6791
    endloop
  endfacet
  facet normal -1 0 0
    outer loop
      vertex 71.55 -4.22164 12.6791
      vertex 71.55 -23.75 18.263
      vertex 71.55 -4.04508 12.9389
    endloop
  endfacet
  facet normal -1 0 0
    outer loop
      vertex 71.55 -4.04508 12.9389
      vertex 71.55 -23.75 18.263
      vertex 71.55 -3.85257 13.1871
    endloop
  endfacet
  facet normal -1 0 0
    outer loop
      vertex 71.55 -3.85257 13.1871
      vertex 71.55 -23.75 18.263
      vertex 71.55 -3.64484 13.4227
    endloop
  endfacet
  facet normal -1 0 0
    outer loop
      vertex 71.55 -3.64484 13.4227
      vertex 71.55 -23.75 18.263
      vertex 71.55 -3.42274 13.6448
    endloop
  endfacet
  facet normal -1 0 0
    outer loop
      vertex 71.55 -3.42274 13.6448
      vertex 71.55 -23.75 18.263
      vertex 71.55 -3.18712 13.8526
    endloop
  endfacet
  facet normal -1 0 0
    outer loop
      vertex 71.55 -3.18712 13.8526
      vertex 71.55 -23.75 18.263
      vertex 71.55 -2.93893 14.0451
    endloop
  endfacet
  facet normal -1 0 0
    outer loop
      vertex 71.55 0 15
      vertex 71.55 -23.75 18.263
      vertex 71.55 23.75 18.263
    endloop
  endfacet
  facet normal -1 0 0
    outer loop
      vertex 71.55 -0.936906 14.9114
      vertex 71.55 -23.75 18.263
      vertex 71.55 -0.626666 14.9606
    endloop
  endfacet
  facet normal -1 0 0
    outer loop
      vertex 71.55 -1.24345 14.8429
      vertex 71.55 -23.75 18.263
      vertex 71.55 -0.936906 14.9114
    endloop
  endfacet
  facet normal -1 0 0
    outer loop
      vertex 71.55 -1.54508 14.7553
      vertex 71.55 -23.75 18.263
      vertex 71.55 -1.24345 14.8429
    endloop
  endfacet
  facet normal -1 0 0
    outer loop
      vertex 71.55 -1.84062 14.6489
      vertex 71.55 -23.75 18.263
      vertex 71.55 -1.54508 14.7553
    endloop
  endfacet
  facet normal -1 0 0
    outer loop
      vertex 71.55 -2.1289 14.5241
      vertex 71.55 -23.75 18.263
      vertex 71.55 -1.84062 14.6489
    endloop
  endfacet
  facet normal -1 0 0
    outer loop
      vertex 71.55 -2.40877 14.3815
      vertex 71.55 -23.75 18.263
      vertex 71.55 -2.1289 14.5241
    endloop
  endfacet
  facet normal -1 0 0
    outer loop
      vertex 71.55 -2.67913 14.2216
      vertex 71.55 -23.75 18.263
      vertex 71.55 -2.40877 14.3815
    endloop
  endfacet
  facet normal -1 0 0
    outer loop
      vertex 71.55 -2.93893 14.0451
      vertex 71.55 -23.75 18.263
      vertex 71.55 -2.67913 14.2216
    endloop
  endfacet
  facet normal 0 1 -0
    outer loop
      vertex 71.55 23.75 18.263
      vertex 69.863 23.75 20.05
      vertex 73.45 23.75 20.05
    endloop
  endfacet
  facet normal 0 1 0
    outer loop
      vertex 69.863 23.75 20.05
      vertex 71.55 23.75 18.263
      vertex 69.813 23.75 20
    endloop
  endfacet
  facet normal 0 1 0
    outer loop
      vertex 73.45 23.75 20.05
      vertex 71.55 23.75 0.95
      vertex 71.55 23.75 18.263
    endloop
  endfacet
  facet normal 0 1 -0
    outer loop
      vertex 73.45 23.75 -0.95
      vertex 71.55 23.75 0.95
      vertex 73.45 23.75 20.05
    endloop
  endfacet
  facet normal 0 1 0
    outer loop
      vertex -72.5 23.75 -0.95
      vertex 71.55 23.75 0.95
      vertex 73.45 23.75 -0.95
    endloop
  endfacet
  facet normal 0 1 0
    outer loop
      vertex 71.55 23.75 0.95
      vertex -72.5 23.75 -0.95
      vertex -72.5 23.75 0.95
    endloop
  endfacet
  facet normal 0 -1 0
    outer loop
      vertex -72.5 -23.75 0.95
      vertex -72.5 -23.75 -0.95
      vertex 71.55 -23.75 0.95
    endloop
  endfacet
  facet normal 0 -1 0
    outer loop
      vertex 71.55 -23.75 18.263
      vertex 69.863 -23.75 20.05
      vertex 69.813 -23.75 20
    endloop
  endfacet
  facet normal 0 -1 0
    outer loop
      vertex 69.863 -23.75 20.05
      vertex 71.55 -23.75 18.263
      vertex 73.45 -23.75 20.05
    endloop
  endfacet
  facet normal 0 -1 0
    outer loop
      vertex 71.55 -23.75 0.95
      vertex 73.45 -23.75 20.05
      vertex 71.55 -23.75 18.263
    endloop
  endfacet
  facet normal 0 -1 0
    outer loop
      vertex 71.55 -23.75 0.95
      vertex 73.45 -23.75 -0.95
      vertex 73.45 -23.75 20.05
    endloop
  endfacet
  facet normal 0 -1 0
    outer loop
      vertex 73.45 -23.75 -0.95
      vertex 71.55 -23.75 0.95
      vertex -72.5 -23.75 -0.95
    endloop
  endfacet
  facet normal 0 0.397282 -0.917696
    outer loop
      vertex 71.55 -2.1289 14.5241
      vertex 73.45 -1.84062 14.6489
      vertex 73.45 -2.1289 14.5241
    endloop
  endfacet
  facet normal 0 0.397282 -0.917696
    outer loop
      vertex 73.45 -1.84062 14.6489
      vertex 71.55 -2.1289 14.5241
      vertex 71.55 -1.84062 14.6489
    endloop
  endfacet
  facet normal 0 -0.156412 0.987692
    outer loop
      vertex 71.55 0.936906 5.08856
      vertex 73.45 0.626666 5.03943
      vertex 73.45 0.936906 5.08856
    endloop
  endfacet
  facet normal 0 -0.156412 0.987692
    outer loop
      vertex 73.45 0.626666 5.03943
      vertex 71.55 0.936906 5.08856
      vertex 71.55 0.626666 5.03943
    endloop
  endfacet
  facet normal 0 -0.995562 -0.0941119
    outer loop
      vertex 71.55 4.99013 10.314
      vertex 73.45 4.96057 10.6267
      vertex 71.55 4.96057 10.6267
    endloop
  endfacet
  facet normal 0 -0.995562 -0.0941119
    outer loop
      vertex 73.45 4.96057 10.6267
      vertex 71.55 4.99013 10.314
      vertex 73.45 4.99013 10.314
    endloop
  endfacet
  facet normal 0 0.999506 0.0314226
    outer loop
      vertex 73.45 -4.99013 9.68605
      vertex 71.55 -5 10
      vertex 73.45 -5 10
    endloop
  endfacet
  facet normal 0 0.999506 0.0314226
    outer loop
      vertex 71.55 -5 10
      vertex 73.45 -4.99013 9.68605
      vertex 71.55 -4.99013 9.68605
    endloop
  endfacet
  facet normal 0 0.995562 -0.0941119
    outer loop
      vertex 73.45 -4.99013 10.314
      vertex 71.55 -4.96057 10.6267
      vertex 73.45 -4.96057 10.6267
    endloop
  endfacet
  facet normal 0 0.995562 -0.0941119
    outer loop
      vertex 71.55 -4.96057 10.6267
      vertex 73.45 -4.99013 10.314
      vertex 71.55 -4.99013 10.314
    endloop
  endfacet
  facet normal 0 -0.987692 0.156412
    outer loop
      vertex 71.55 4.91144 9.06309
      vertex 73.45 4.96057 9.37333
      vertex 71.55 4.96057 9.37333
    endloop
  endfacet
  facet normal 0 -0.987692 0.156412
    outer loop
      vertex 73.45 4.96057 9.37333
      vertex 71.55 4.91144 9.06309
      vertex 73.45 4.91144 9.06309
    endloop
  endfacet
  facet normal 0 -0.790176 -0.61288
    outer loop
      vertex 71.55 4.04508 12.9389
      vertex 73.45 3.85257 13.1871
      vertex 71.55 3.85257 13.1871
    endloop
  endfacet
  facet normal 0 -0.790176 -0.61288
    outer loop
      vertex 73.45 3.85257 13.1871
      vertex 71.55 4.04508 12.9389
      vertex 73.45 4.04508 12.9389
    endloop
  endfacet
  facet normal 0 0.860743 0.50904
    outer loop
      vertex 73.45 -4.22164 7.32087
      vertex 71.55 -4.38153 7.59123
      vertex 73.45 -4.38153 7.59123
    endloop
  endfacet
  facet normal 0 0.860743 0.50904
    outer loop
      vertex 71.55 -4.38153 7.59123
      vertex 73.45 -4.22164 7.32087
      vertex 71.55 -4.22164 7.32087
    endloop
  endfacet
  facet normal 0 -0.612915 0.790149
    outer loop
      vertex 71.55 3.18712 6.14743
      vertex 73.45 2.93893 5.95491
      vertex 73.45 3.18712 6.14743
    endloop
  endfacet
  facet normal 0 -0.612915 0.790149
    outer loop
      vertex 73.45 2.93893 5.95491
      vertex 71.55 3.18712 6.14743
      vertex 71.55 2.93893 5.95491
    endloop
  endfacet
  facet normal 0 0.987692 0.156412
    outer loop
      vertex 73.45 -4.91144 9.06309
      vertex 71.55 -4.96057 9.37333
      vertex 73.45 -4.96057 9.37333
    endloop
  endfacet
  facet normal 0 0.987692 0.156412
    outer loop
      vertex 71.55 -4.96057 9.37333
      vertex 73.45 -4.91144 9.06309
      vertex 71.55 -4.91144 9.06309
    endloop
  endfacet
  facet normal -0 0.338735 0.940882
    outer loop
      vertex 71.55 -1.54508 5.24472
      vertex 73.45 -1.84062 5.35112
      vertex 73.45 -1.54508 5.24472
    endloop
  endfacet
  facet normal 0 0.338735 0.940882
    outer loop
      vertex 73.45 -1.84062 5.35112
      vertex 71.55 -1.54508 5.24472
      vertex 71.55 -1.84062 5.35112
    endloop
  endfacet
  facet normal 0 0.15663 -0.987657
    outer loop
      vertex 71.55 -0.936906 14.9114
      vertex 73.45 -0.626666 14.9606
      vertex 73.45 -0.936906 14.9114
    endloop
  endfacet
  facet normal 0 0.15663 -0.987657
    outer loop
      vertex 73.45 -0.626666 14.9606
      vertex 71.55 -0.936906 14.9114
      vertex 71.55 -0.626666 14.9606
    endloop
  endfacet
  facet normal 0 -0.338735 -0.940882
    outer loop
      vertex 71.55 1.54508 14.7553
      vertex 73.45 1.84062 14.6489
      vertex 73.45 1.54508 14.7553
    endloop
  endfacet
  facet normal -0 -0.338735 -0.940882
    outer loop
      vertex 73.45 1.84062 14.6489
      vertex 71.55 1.54508 14.7553
      vertex 71.55 1.84062 14.6489
    endloop
  endfacet
  facet normal 0 -0.0314224 0.999506
    outer loop
      vertex 71.55 0.313952 5.00987
      vertex 73.45 0 5
      vertex 73.45 0.313952 5.00987
    endloop
  endfacet
  facet normal 0 -0.0314224 0.999506
    outer loop
      vertex 73.45 0 5
      vertex 71.55 0.313952 5.00987
      vertex 71.55 0 5
    endloop
  endfacet
  facet normal -0 0.0314224 0.999506
    outer loop
      vertex 71.55 0 5
      vertex 73.45 -0.313952 5.00987
      vertex 73.45 0 5
    endloop
  endfacet
  facet normal 0 0.0314224 0.999506
    outer loop
      vertex 73.45 -0.313952 5.00987
      vertex 71.55 0 5
      vertex 71.55 -0.313952 5.00987
    endloop
  endfacet
  facet normal 0 -0.612875 -0.79018
    outer loop
      vertex 71.55 2.93893 14.0451
      vertex 73.45 3.18712 13.8526
      vertex 73.45 2.93893 14.0451
    endloop
  endfacet
  facet normal -0 -0.612875 -0.79018
    outer loop
      vertex 73.45 3.18712 13.8526
      vertex 71.55 2.93893 14.0451
      vertex 71.55 3.18712 13.8526
    endloop
  endfacet
  facet normal 0 0.0939184 -0.99558
    outer loop
      vertex 71.55 -0.626666 14.9606
      vertex 73.45 -0.313952 14.9901
      vertex 73.45 -0.626666 14.9606
    endloop
  endfacet
  facet normal 0 0.0939184 -0.99558
    outer loop
      vertex 73.45 -0.313952 14.9901
      vertex 71.55 -0.626666 14.9606
      vertex 71.55 -0.313952 14.9901
    endloop
  endfacet
  facet normal 0 -0.561953 -0.827169
    outer loop
      vertex 71.55 2.67913 14.2216
      vertex 73.45 2.93893 14.0451
      vertex 73.45 2.67913 14.2216
    endloop
  endfacet
  facet normal -0 -0.561953 -0.827169
    outer loop
      vertex 73.45 2.93893 14.0451
      vertex 71.55 2.67913 14.2216
      vertex 71.55 2.93893 14.0451
    endloop
  endfacet
  facet normal 0 0.960289 0.279007
    outer loop
      vertex 73.45 -4.75528 8.45491
      vertex 71.55 -4.84292 8.75655
      vertex 73.45 -4.84292 8.75655
    endloop
  endfacet
  facet normal 0 0.960289 0.279007
    outer loop
      vertex 71.55 -4.84292 8.75655
      vertex 73.45 -4.75528 8.45491
      vertex 71.55 -4.75528 8.45491
    endloop
  endfacet
  facet normal 0 -0.218141 0.975917
    outer loop
      vertex 71.55 1.24345 5.15708
      vertex 73.45 0.936906 5.08856
      vertex 73.45 1.24345 5.15708
    endloop
  endfacet
  facet normal 0 -0.218141 0.975917
    outer loop
      vertex 73.45 0.936906 5.08856
      vertex 71.55 1.24345 5.15708
      vertex 71.55 0.936906 5.08856
    endloop
  endfacet
  facet normal 0 0.917755 0.397148
    outer loop
      vertex 73.45 -4.52413 7.8711
      vertex 71.55 -4.64888 8.15938
      vertex 73.45 -4.64888 8.15938
    endloop
  endfacet
  facet normal 0 0.917755 0.397148
    outer loop
      vertex 71.55 -4.64888 8.15938
      vertex 73.45 -4.52413 7.8711
      vertex 71.55 -4.52413 7.8711
    endloop
  endfacet
  facet normal 0 -0.0939184 -0.99558
    outer loop
      vertex 71.55 0.313952 14.9901
      vertex 73.45 0.626666 14.9606
      vertex 73.45 0.313952 14.9901
    endloop
  endfacet
  facet normal -0 -0.0939184 -0.99558
    outer loop
      vertex 73.45 0.626666 14.9606
      vertex 71.55 0.313952 14.9901
      vertex 71.55 0.626666 14.9606
    endloop
  endfacet
  facet normal 0 -0.279016 0.960287
    outer loop
      vertex 71.55 1.54508 5.24472
      vertex 73.45 1.24345 5.15708
      vertex 73.45 1.54508 5.24472
    endloop
  endfacet
  facet normal 0 -0.279016 0.960287
    outer loop
      vertex 73.45 1.24345 5.15708
      vertex 71.55 1.54508 5.24472
      vertex 71.55 1.24345 5.15708
    endloop
  endfacet
  facet normal 0 -0.82708 0.562084
    outer loop
      vertex 71.55 4.04508 7.06107
      vertex 73.45 4.22164 7.32087
      vertex 71.55 4.22164 7.32087
    endloop
  endfacet
  facet normal 0 -0.82708 0.562084
    outer loop
      vertex 73.45 4.22164 7.32087
      vertex 71.55 4.04508 7.06107
      vertex 73.45 4.04508 7.06107
    endloop
  endfacet
  facet normal 0 0.891008 0.453988
    outer loop
      vertex 73.45 -4.38153 7.59123
      vertex 71.55 -4.52413 7.8711
      vertex 73.45 -4.52413 7.8711
    endloop
  endfacet
  facet normal 0 0.891008 0.453988
    outer loop
      vertex 71.55 -4.52413 7.8711
      vertex 73.45 -4.38153 7.59123
      vertex 71.55 -4.38153 7.59123
    endloop
  endfacet
  facet normal 0 -0.790164 0.612895
    outer loop
      vertex 71.55 3.85257 6.81288
      vertex 73.45 4.04508 7.06107
      vertex 71.55 4.04508 7.06107
    endloop
  endfacet
  facet normal 0 -0.790164 0.612895
    outer loop
      vertex 73.45 4.04508 7.06107
      vertex 71.55 3.85257 6.81288
      vertex 73.45 3.85257 6.81288
    endloop
  endfacet
  facet normal 0 -0.860743 0.50904
    outer loop
      vertex 71.55 4.22164 7.32087
      vertex 73.45 4.38153 7.59123
      vertex 71.55 4.38153 7.59123
    endloop
  endfacet
  facet normal 0 -0.860743 0.50904
    outer loop
      vertex 73.45 4.38153 7.59123
      vertex 71.55 4.22164 7.32087
      vertex 73.45 4.22164 7.32087
    endloop
  endfacet
  facet normal 0 0.707107 -0.707107
    outer loop
      vertex 73.45 -3.64484 13.4227
      vertex 71.55 -3.42274 13.6448
      vertex 73.45 -3.42274 13.6448
    endloop
  endfacet
  facet normal 0 0.707107 -0.707107
    outer loop
      vertex 71.55 -3.42274 13.6448
      vertex 73.45 -3.64484 13.4227
      vertex 71.55 -3.64484 13.4227
    endloop
  endfacet
  facet normal 0 -0.397282 -0.917696
    outer loop
      vertex 71.55 1.84062 14.6489
      vertex 73.45 2.1289 14.5241
      vertex 73.45 1.84062 14.6489
    endloop
  endfacet
  facet normal -0 -0.397282 -0.917696
    outer loop
      vertex 73.45 2.1289 14.5241
      vertex 71.55 1.84062 14.6489
      vertex 71.55 2.1289 14.5241
    endloop
  endfacet
  facet normal 0 -0.995562 0.094106
    outer loop
      vertex 71.55 4.96057 9.37333
      vertex 73.45 4.99013 9.68605
      vertex 71.55 4.99013 9.68605
    endloop
  endfacet
  facet normal 0 -0.995562 0.094106
    outer loop
      vertex 73.45 4.99013 9.68605
      vertex 71.55 4.96057 9.37333
      vertex 73.45 4.96057 9.37333
    endloop
  endfacet
  facet normal 0 -0.960304 -0.278956
    outer loop
      vertex 71.55 4.84292 11.2434
      vertex 73.45 4.75528 11.5451
      vertex 71.55 4.75528 11.5451
    endloop
  endfacet
  facet normal 0 -0.960304 -0.278956
    outer loop
      vertex 73.45 4.75528 11.5451
      vertex 71.55 4.84292 11.2434
      vertex 73.45 4.84292 11.2434
    endloop
  endfacet
  facet normal 0 -0.750078 -0.661349
    outer loop
      vertex 71.55 3.85257 13.1871
      vertex 73.45 3.64484 13.4227
      vertex 71.55 3.64484 13.4227
    endloop
  endfacet
  facet normal 0 -0.750078 -0.661349
    outer loop
      vertex 73.45 3.64484 13.4227
      vertex 71.55 3.85257 13.1871
      vertex 73.45 3.85257 13.1871
    endloop
  endfacet
  facet normal -0 0.279016 0.960287
    outer loop
      vertex 71.55 -1.24345 5.15708
      vertex 73.45 -1.54508 5.24472
      vertex 73.45 -1.24345 5.15708
    endloop
  endfacet
  facet normal 0 0.279016 0.960287
    outer loop
      vertex 73.45 -1.54508 5.24472
      vertex 71.55 -1.24345 5.15708
      vertex 71.55 -1.54508 5.24472
    endloop
  endfacet
  facet normal 0 -0.454014 0.890995
    outer loop
      vertex 71.55 2.40877 5.61847
      vertex 73.45 2.1289 5.47586
      vertex 73.45 2.40877 5.61847
    endloop
  endfacet
  facet normal 0 -0.454014 0.890995
    outer loop
      vertex 73.45 2.1289 5.47586
      vertex 71.55 2.40877 5.61847
      vertex 71.55 2.1289 5.47586
    endloop
  endfacet
  facet normal 0 0.975917 0.218144
    outer loop
      vertex 73.45 -4.84292 8.75655
      vertex 71.55 -4.91144 9.06309
      vertex 73.45 -4.91144 9.06309
    endloop
  endfacet
  facet normal 0 0.975917 0.218144
    outer loop
      vertex 71.55 -4.91144 9.06309
      vertex 73.45 -4.84292 8.75655
      vertex 71.55 -4.84292 8.75655
    endloop
  endfacet
  facet normal 0 0.278898 -0.960321
    outer loop
      vertex 71.55 -1.54508 14.7553
      vertex 73.45 -1.24345 14.8429
      vertex 73.45 -1.54508 14.7553
    endloop
  endfacet
  facet normal 0 0.278898 -0.960321
    outer loop
      vertex 73.45 -1.24345 14.8429
      vertex 71.55 -1.54508 14.7553
      vertex 71.55 -1.24345 14.8429
    endloop
  endfacet
  facet normal 0 0.509064 -0.860729
    outer loop
      vertex 71.55 -2.67913 14.2216
      vertex 73.45 -2.40877 14.3815
      vertex 73.45 -2.67913 14.2216
    endloop
  endfacet
  facet normal 0 0.509064 -0.860729
    outer loop
      vertex 73.45 -2.40877 14.3815
      vertex 71.55 -2.67913 14.2216
      vertex 71.55 -2.40877 14.3815
    endloop
  endfacet
  facet normal -0 0.156412 0.987692
    outer loop
      vertex 71.55 -0.626666 5.03943
      vertex 73.45 -0.936906 5.08856
      vertex 73.45 -0.626666 5.03943
    endloop
  endfacet
  facet normal 0 0.156412 0.987692
    outer loop
      vertex 73.45 -0.936906 5.08856
      vertex 71.55 -0.626666 5.03943
      vertex 71.55 -0.936906 5.08856
    endloop
  endfacet
  facet normal 0 -0.917765 -0.397125
    outer loop
      vertex 71.55 4.64888 11.8406
      vertex 73.45 4.52413 12.1289
      vertex 71.55 4.52413 12.1289
    endloop
  endfacet
  facet normal 0 -0.917765 -0.397125
    outer loop
      vertex 73.45 4.52413 12.1289
      vertex 71.55 4.64888 11.8406
      vertex 73.45 4.64888 11.8406
    endloop
  endfacet
  facet normal 0 -0.940867 -0.338776
    outer loop
      vertex 71.55 4.75528 11.5451
      vertex 73.45 4.64888 11.8406
      vertex 71.55 4.64888 11.8406
    endloop
  endfacet
  facet normal 0 -0.940867 -0.338776
    outer loop
      vertex 73.45 4.64888 11.8406
      vertex 71.55 4.75528 11.5451
      vertex 73.45 4.75528 11.5451
    endloop
  endfacet
  facet normal -0 0.612915 0.790149
    outer loop
      vertex 71.55 -2.93893 5.95491
      vertex 73.45 -3.18712 6.14743
      vertex 73.45 -2.93893 5.95491
    endloop
  endfacet
  facet normal 0 0.612915 0.790149
    outer loop
      vertex 73.45 -3.18712 6.14743
      vertex 71.55 -2.93893 5.95491
      vertex 71.55 -3.18712 6.14743
    endloop
  endfacet
  facet normal 0 -0.707107 0.707107
    outer loop
      vertex 71.55 3.42274 6.35516
      vertex 73.45 3.64484 6.57726
      vertex 71.55 3.64484 6.57726
    endloop
  endfacet
  facet normal 0 -0.707107 0.707107
    outer loop
      vertex 73.45 3.64484 6.57726
      vertex 71.55 3.42274 6.35516
      vertex 73.45 3.42274 6.35516
    endloop
  endfacet
  facet normal 0 -0.975911 -0.218171
    outer loop
      vertex 71.55 4.91144 10.9369
      vertex 73.45 4.84292 11.2434
      vertex 71.55 4.84292 11.2434
    endloop
  endfacet
  facet normal 0 -0.975911 -0.218171
    outer loop
      vertex 73.45 4.84292 11.2434
      vertex 71.55 4.91144 10.9369
      vertex 73.45 4.91144 10.9369
    endloop
  endfacet
  facet normal 0 -0.0315178 -0.999503
    outer loop
      vertex 71.55 0 15
      vertex 73.45 0.313952 14.9901
      vertex 73.45 0 15
    endloop
  endfacet
  facet normal -0 -0.0315178 -0.999503
    outer loop
      vertex 73.45 0.313952 14.9901
      vertex 71.55 0 15
      vertex 71.55 0.313952 14.9901
    endloop
  endfacet
  facet normal 0 -0.21808 -0.975931
    outer loop
      vertex 71.55 0.936906 14.9114
      vertex 73.45 1.24345 14.8429
      vertex 73.45 0.936906 14.9114
    endloop
  endfacet
  facet normal -0 -0.21808 -0.975931
    outer loop
      vertex 73.45 1.24345 14.8429
      vertex 71.55 0.936906 14.9114
      vertex 71.55 1.24345 14.8429
    endloop
  endfacet
  facet normal 0 -0.917755 0.397148
    outer loop
      vertex 71.55 4.52413 7.8711
      vertex 73.45 4.64888 8.15938
      vertex 71.55 4.64888 8.15938
    endloop
  endfacet
  facet normal 0 -0.917755 0.397148
    outer loop
      vertex 73.45 4.64888 8.15938
      vertex 71.55 4.52413 7.8711
      vertex 73.45 4.52413 7.8711
    endloop
  endfacet
  facet normal 0 -0.82708 -0.562084
    outer loop
      vertex 71.55 4.22164 12.6791
      vertex 73.45 4.04508 12.9389
      vertex 71.55 4.04508 12.9389
    endloop
  endfacet
  facet normal 0 -0.82708 -0.562084
    outer loop
      vertex 73.45 4.04508 12.9389
      vertex 71.55 4.22164 12.6791
      vertex 73.45 4.22164 12.6791
    endloop
  endfacet
  facet normal -0 0.0941078 0.995562
    outer loop
      vertex 71.55 -0.313952 5.00987
      vertex 73.45 -0.626666 5.03943
      vertex 73.45 -0.313952 5.00987
    endloop
  endfacet
  facet normal 0 0.0941078 0.995562
    outer loop
      vertex 73.45 -0.626666 5.03943
      vertex 71.55 -0.313952 5.00987
      vertex 71.55 -0.626666 5.03943
    endloop
  endfacet
  facet normal 0 -0.50904 0.860743
    outer loop
      vertex 71.55 2.67913 5.77836
      vertex 73.45 2.40877 5.61847
      vertex 73.45 2.67913 5.77836
    endloop
  endfacet
  facet normal 0 -0.50904 0.860743
    outer loop
      vertex 73.45 2.40877 5.61847
      vertex 71.55 2.67913 5.77836
      vertex 71.55 2.40877 5.61847
    endloop
  endfacet
  facet normal 0 -0.750106 0.661317
    outer loop
      vertex 71.55 3.64484 6.57726
      vertex 73.45 3.85257 6.81288
      vertex 71.55 3.85257 6.81288
    endloop
  endfacet
  facet normal 0 -0.750106 0.661317
    outer loop
      vertex 73.45 3.85257 6.81288
      vertex 71.55 3.64484 6.57726
      vertex 73.45 3.64484 6.57726
    endloop
  endfacet
  facet normal 0 -0.860693 -0.509124
    outer loop
      vertex 71.55 4.38153 12.4088
      vertex 73.45 4.22164 12.6791
      vertex 71.55 4.22164 12.6791
    endloop
  endfacet
  facet normal 0 -0.860693 -0.509124
    outer loop
      vertex 73.45 4.22164 12.6791
      vertex 71.55 4.38153 12.4088
      vertex 73.45 4.38153 12.4088
    endloop
  endfacet
  facet normal 0 0.987689 -0.156432
    outer loop
      vertex 73.45 -4.96057 10.6267
      vertex 71.55 -4.91144 10.9369
      vertex 73.45 -4.91144 10.9369
    endloop
  endfacet
  facet normal 0 0.987689 -0.156432
    outer loop
      vertex 71.55 -4.91144 10.9369
      vertex 73.45 -4.96057 10.6267
      vertex 71.55 -4.96057 10.6267
    endloop
  endfacet
  facet normal 0 0.561953 -0.827169
    outer loop
      vertex 71.55 -2.93893 14.0451
      vertex 73.45 -2.67913 14.2216
      vertex 73.45 -2.93893 14.0451
    endloop
  endfacet
  facet normal 0 0.561953 -0.827169
    outer loop
      vertex 73.45 -2.67913 14.2216
      vertex 71.55 -2.93893 14.0451
      vertex 71.55 -2.67913 14.2216
    endloop
  endfacet
  facet normal 0 -0.453988 -0.891008
    outer loop
      vertex 71.55 2.1289 14.5241
      vertex 73.45 2.40877 14.3815
      vertex 73.45 2.1289 14.5241
    endloop
  endfacet
  facet normal -0 -0.453988 -0.891008
    outer loop
      vertex 73.45 2.40877 14.3815
      vertex 71.55 2.1289 14.5241
      vertex 71.55 2.40877 14.3815
    endloop
  endfacet
  facet normal 0 -0.891008 0.453988
    outer loop
      vertex 71.55 4.38153 7.59123
      vertex 73.45 4.52413 7.8711
      vertex 71.55 4.52413 7.8711
    endloop
  endfacet
  facet normal 0 -0.891008 0.453988
    outer loop
      vertex 73.45 4.52413 7.8711
      vertex 71.55 4.38153 7.59123
      vertex 73.45 4.38153 7.59123
    endloop
  endfacet
  facet normal 0 -0.0941078 0.995562
    outer loop
      vertex 71.55 0.626666 5.03943
      vertex 73.45 0.313952 5.00987
      vertex 73.45 0.626666 5.03943
    endloop
  endfacet
  facet normal 0 -0.0941078 0.995562
    outer loop
      vertex 73.45 0.313952 5.00987
      vertex 71.55 0.626666 5.03943
      vertex 71.55 0.313952 5.00987
    endloop
  endfacet
  facet normal 0 -0.999506 0.0314226
    outer loop
      vertex 71.55 4.99013 9.68605
      vertex 73.45 5 10
      vertex 71.55 5 10
    endloop
  endfacet
  facet normal 0 -0.999506 0.0314226
    outer loop
      vertex 73.45 5 10
      vertex 71.55 4.99013 9.68605
      vertex 73.45 4.99013 9.68605
    endloop
  endfacet
  facet normal 0 -0.940878 0.338745
    outer loop
      vertex 71.55 4.64888 8.15938
      vertex 73.45 4.75528 8.45491
      vertex 71.55 4.75528 8.45491
    endloop
  endfacet
  facet normal 0 -0.940878 0.338745
    outer loop
      vertex 73.45 4.75528 8.45491
      vertex 71.55 4.64888 8.15938
      vertex 73.45 4.64888 8.15938
    endloop
  endfacet
  facet normal 0 0.891027 -0.45395
    outer loop
      vertex 73.45 -4.52413 12.1289
      vertex 71.55 -4.38153 12.4088
      vertex 73.45 -4.38153 12.4088
    endloop
  endfacet
  facet normal 0 0.891027 -0.45395
    outer loop
      vertex 71.55 -4.38153 12.4088
      vertex 73.45 -4.52413 12.1289
      vertex 71.55 -4.52413 12.1289
    endloop
  endfacet
  facet normal 0 -0.999506 -0.0314176
    outer loop
      vertex 71.55 5 10
      vertex 73.45 4.99013 10.314
      vertex 71.55 4.99013 10.314
    endloop
  endfacet
  facet normal 0 -0.999506 -0.0314176
    outer loop
      vertex 73.45 4.99013 10.314
      vertex 71.55 5 10
      vertex 73.45 5 10
    endloop
  endfacet
  facet normal 0 0.82708 0.562084
    outer loop
      vertex 73.45 -4.04508 7.06107
      vertex 71.55 -4.22164 7.32087
      vertex 73.45 -4.22164 7.32087
    endloop
  endfacet
  facet normal 0 0.82708 0.562084
    outer loop
      vertex 71.55 -4.22164 7.32087
      vertex 73.45 -4.04508 7.06107
      vertex 71.55 -4.04508 7.06107
    endloop
  endfacet
  facet normal 0 -0.987689 -0.156432
    outer loop
      vertex 71.55 4.96057 10.6267
      vertex 73.45 4.91144 10.9369
      vertex 71.55 4.91144 10.9369
    endloop
  endfacet
  facet normal 0 -0.987689 -0.156432
    outer loop
      vertex 73.45 4.91144 10.9369
      vertex 71.55 4.96057 10.6267
      vertex 73.45 4.96057 10.6267
    endloop
  endfacet
  facet normal -0 0.218141 0.975917
    outer loop
      vertex 71.55 -0.936906 5.08856
      vertex 73.45 -1.24345 5.15708
      vertex 73.45 -0.936906 5.08856
    endloop
  endfacet
  facet normal 0 0.218141 0.975917
    outer loop
      vertex 73.45 -1.24345 5.15708
      vertex 71.55 -0.936906 5.08856
      vertex 71.55 -1.24345 5.15708
    endloop
  endfacet
  facet normal 0 0.338735 -0.940882
    outer loop
      vertex 71.55 -1.84062 14.6489
      vertex 73.45 -1.54508 14.7553
      vertex 73.45 -1.84062 14.6489
    endloop
  endfacet
  facet normal 0 0.338735 -0.940882
    outer loop
      vertex 73.45 -1.54508 14.7553
      vertex 71.55 -1.84062 14.6489
      vertex 71.55 -1.54508 14.7553
    endloop
  endfacet
  facet normal 0 0.917765 -0.397125
    outer loop
      vertex 73.45 -4.64888 11.8406
      vertex 71.55 -4.52413 12.1289
      vertex 73.45 -4.52413 12.1289
    endloop
  endfacet
  facet normal 0 0.917765 -0.397125
    outer loop
      vertex 71.55 -4.52413 12.1289
      vertex 73.45 -4.64888 11.8406
      vertex 71.55 -4.64888 11.8406
    endloop
  endfacet
  facet normal -0 0.454014 0.890995
    outer loop
      vertex 71.55 -2.1289 5.47586
      vertex 73.45 -2.40877 5.61847
      vertex 73.45 -2.1289 5.47586
    endloop
  endfacet
  facet normal 0 0.454014 0.890995
    outer loop
      vertex 73.45 -2.40877 5.61847
      vertex 71.55 -2.1289 5.47586
      vertex 71.55 -2.40877 5.61847
    endloop
  endfacet
  facet normal 0 -0.661317 0.750106
    outer loop
      vertex 71.55 3.42274 6.35516
      vertex 73.45 3.18712 6.14743
      vertex 73.45 3.42274 6.35516
    endloop
  endfacet
  facet normal 0 -0.661317 0.750106
    outer loop
      vertex 73.45 3.18712 6.14743
      vertex 71.55 3.42274 6.35516
      vertex 71.55 3.18712 6.14743
    endloop
  endfacet
  facet normal 0 0.995562 0.094106
    outer loop
      vertex 73.45 -4.96057 9.37333
      vertex 71.55 -4.99013 9.68605
      vertex 73.45 -4.99013 9.68605
    endloop
  endfacet
  facet normal 0 0.995562 0.094106
    outer loop
      vertex 71.55 -4.99013 9.68605
      vertex 73.45 -4.96057 9.37333
      vertex 71.55 -4.96057 9.37333
    endloop
  endfacet
  facet normal 0 0.0315178 -0.999503
    outer loop
      vertex 71.55 -0.313952 14.9901
      vertex 73.45 0 15
      vertex 73.45 -0.313952 14.9901
    endloop
  endfacet
  facet normal 0 0.0315178 -0.999503
    outer loop
      vertex 73.45 0 15
      vertex 71.55 -0.313952 14.9901
      vertex 71.55 0 15
    endloop
  endfacet
  facet normal 0 -0.338735 0.940882
    outer loop
      vertex 71.55 1.84062 5.35112
      vertex 73.45 1.54508 5.24472
      vertex 73.45 1.84062 5.35112
    endloop
  endfacet
  facet normal 0 -0.338735 0.940882
    outer loop
      vertex 73.45 1.54508 5.24472
      vertex 71.55 1.84062 5.35112
      vertex 71.55 1.54508 5.24472
    endloop
  endfacet
  facet normal 0 -0.562062 0.827095
    outer loop
      vertex 71.55 2.93893 5.95491
      vertex 73.45 2.67913 5.77836
      vertex 73.45 2.93893 5.95491
    endloop
  endfacet
  facet normal 0 -0.562062 0.827095
    outer loop
      vertex 73.45 2.67913 5.77836
      vertex 71.55 2.93893 5.95491
      vertex 71.55 2.67913 5.77836
    endloop
  endfacet
  facet normal 0 0.940878 0.338745
    outer loop
      vertex 73.45 -4.64888 8.15938
      vertex 71.55 -4.75528 8.45491
      vertex 73.45 -4.75528 8.45491
    endloop
  endfacet
  facet normal 0 0.940878 0.338745
    outer loop
      vertex 71.55 -4.75528 8.45491
      vertex 73.45 -4.64888 8.15938
      vertex 71.55 -4.64888 8.15938
    endloop
  endfacet
  facet normal -0 0.661317 0.750106
    outer loop
      vertex 71.55 -3.18712 6.14743
      vertex 73.45 -3.42274 6.35516
      vertex 73.45 -3.18712 6.14743
    endloop
  endfacet
  facet normal 0 0.661317 0.750106
    outer loop
      vertex 73.45 -3.42274 6.35516
      vertex 71.55 -3.18712 6.14743
      vertex 71.55 -3.42274 6.35516
    endloop
  endfacet
  facet normal 0 0.999506 -0.0314176
    outer loop
      vertex 73.45 -5 10
      vertex 71.55 -4.99013 10.314
      vertex 73.45 -4.99013 10.314
    endloop
  endfacet
  facet normal 0 0.999506 -0.0314176
    outer loop
      vertex 71.55 -4.99013 10.314
      vertex 73.45 -5 10
      vertex 71.55 -5 10
    endloop
  endfacet
  facet normal 0 -0.891027 -0.45395
    outer loop
      vertex 71.55 4.52413 12.1289
      vertex 73.45 4.38153 12.4088
      vertex 71.55 4.38153 12.4088
    endloop
  endfacet
  facet normal 0 -0.891027 -0.45395
    outer loop
      vertex 73.45 4.38153 12.4088
      vertex 71.55 4.52413 12.1289
      vertex 73.45 4.52413 12.1289
    endloop
  endfacet
  facet normal 0 -0.15663 -0.987657
    outer loop
      vertex 71.55 0.626666 14.9606
      vertex 73.45 0.936906 14.9114
      vertex 73.45 0.626666 14.9606
    endloop
  endfacet
  facet normal -0 -0.15663 -0.987657
    outer loop
      vertex 73.45 0.936906 14.9114
      vertex 71.55 0.626666 14.9606
      vertex 71.55 0.936906 14.9114
    endloop
  endfacet
  facet normal 0 -0.707107 -0.707107
    outer loop
      vertex 71.55 3.64484 13.4227
      vertex 73.45 3.42274 13.6448
      vertex 71.55 3.42274 13.6448
    endloop
  endfacet
  facet normal 0 -0.707107 -0.707107
    outer loop
      vertex 73.45 3.42274 13.6448
      vertex 71.55 3.64484 13.4227
      vertex 73.45 3.64484 13.4227
    endloop
  endfacet
  facet normal 0 -0.397121 0.917766
    outer loop
      vertex 71.55 2.1289 5.47586
      vertex 73.45 1.84062 5.35112
      vertex 73.45 2.1289 5.47586
    endloop
  endfacet
  facet normal 0 -0.397121 0.917766
    outer loop
      vertex 73.45 1.84062 5.35112
      vertex 71.55 2.1289 5.47586
      vertex 71.55 1.84062 5.35112
    endloop
  endfacet
  facet normal 0 0.612875 -0.79018
    outer loop
      vertex 71.55 -3.18712 13.8526
      vertex 73.45 -2.93893 14.0451
      vertex 73.45 -3.18712 13.8526
    endloop
  endfacet
  facet normal 0 0.612875 -0.79018
    outer loop
      vertex 73.45 -2.93893 14.0451
      vertex 71.55 -3.18712 13.8526
      vertex 71.55 -2.93893 14.0451
    endloop
  endfacet
  facet normal -0 0.50904 0.860743
    outer loop
      vertex 71.55 -2.40877 5.61847
      vertex 73.45 -2.67913 5.77836
      vertex 73.45 -2.40877 5.61847
    endloop
  endfacet
  facet normal 0 0.50904 0.860743
    outer loop
      vertex 73.45 -2.67913 5.77836
      vertex 71.55 -2.40877 5.61847
      vertex 71.55 -2.67913 5.77836
    endloop
  endfacet
  facet normal 0 0.707107 0.707107
    outer loop
      vertex 73.45 -3.42274 6.35516
      vertex 71.55 -3.64484 6.57726
      vertex 73.45 -3.64484 6.57726
    endloop
  endfacet
  facet normal 0 0.707107 0.707107
    outer loop
      vertex 71.55 -3.64484 6.57726
      vertex 73.45 -3.42274 6.35516
      vertex 71.55 -3.42274 6.35516
    endloop
  endfacet
  facet normal 0 0.940867 -0.338776
    outer loop
      vertex 73.45 -4.75528 11.5451
      vertex 71.55 -4.64888 11.8406
      vertex 73.45 -4.64888 11.8406
    endloop
  endfacet
  facet normal 0 0.940867 -0.338776
    outer loop
      vertex 71.55 -4.64888 11.8406
      vertex 73.45 -4.75528 11.5451
      vertex 71.55 -4.75528 11.5451
    endloop
  endfacet
  facet normal 0 0.860693 -0.509124
    outer loop
      vertex 73.45 -4.38153 12.4088
      vertex 71.55 -4.22164 12.6791
      vertex 73.45 -4.22164 12.6791
    endloop
  endfacet
  facet normal 0 0.860693 -0.509124
    outer loop
      vertex 71.55 -4.22164 12.6791
      vertex 73.45 -4.38153 12.4088
      vertex 71.55 -4.38153 12.4088
    endloop
  endfacet
  facet normal 0 -0.960289 0.279007
    outer loop
      vertex 71.55 4.75528 8.45491
      vertex 73.45 4.84292 8.75655
      vertex 71.55 4.84292 8.75655
    endloop
  endfacet
  facet normal 0 -0.960289 0.279007
    outer loop
      vertex 73.45 4.84292 8.75655
      vertex 71.55 4.75528 8.45491
      vertex 73.45 4.75528 8.45491
    endloop
  endfacet
  facet normal 0 -0.509064 -0.860729
    outer loop
      vertex 71.55 2.40877 14.3815
      vertex 73.45 2.67913 14.2216
      vertex 73.45 2.40877 14.3815
    endloop
  endfacet
  facet normal -0 -0.509064 -0.860729
    outer loop
      vertex 73.45 2.67913 14.2216
      vertex 71.55 2.40877 14.3815
      vertex 71.55 2.67913 14.2216
    endloop
  endfacet
  facet normal 0 0.750106 0.661317
    outer loop
      vertex 73.45 -3.64484 6.57726
      vertex 71.55 -3.85257 6.81288
      vertex 73.45 -3.85257 6.81288
    endloop
  endfacet
  facet normal 0 0.750106 0.661317
    outer loop
      vertex 71.55 -3.85257 6.81288
      vertex 73.45 -3.64484 6.57726
      vertex 71.55 -3.64484 6.57726
    endloop
  endfacet
  facet normal 0 0.661443 -0.749996
    outer loop
      vertex 71.55 -3.42274 13.6448
      vertex 73.45 -3.18712 13.8526
      vertex 73.45 -3.42274 13.6448
    endloop
  endfacet
  facet normal 0 0.661443 -0.749996
    outer loop
      vertex 73.45 -3.18712 13.8526
      vertex 71.55 -3.42274 13.6448
      vertex 71.55 -3.18712 13.8526
    endloop
  endfacet
  facet normal 0 0.790176 -0.61288
    outer loop
      vertex 73.45 -4.04508 12.9389
      vertex 71.55 -3.85257 13.1871
      vertex 73.45 -3.85257 13.1871
    endloop
  endfacet
  facet normal 0 0.790176 -0.61288
    outer loop
      vertex 71.55 -3.85257 13.1871
      vertex 73.45 -4.04508 12.9389
      vertex 71.55 -4.04508 12.9389
    endloop
  endfacet
  facet normal 0 -0.975917 0.218144
    outer loop
      vertex 71.55 4.84292 8.75655
      vertex 73.45 4.91144 9.06309
      vertex 71.55 4.91144 9.06309
    endloop
  endfacet
  facet normal 0 -0.975917 0.218144
    outer loop
      vertex 73.45 4.91144 9.06309
      vertex 71.55 4.84292 8.75655
      vertex 73.45 4.84292 8.75655
    endloop
  endfacet
  facet normal 0 0.975911 -0.218171
    outer loop
      vertex 73.45 -4.91144 10.9369
      vertex 71.55 -4.84292 11.2434
      vertex 73.45 -4.84292 11.2434
    endloop
  endfacet
  facet normal 0 0.975911 -0.218171
    outer loop
      vertex 71.55 -4.84292 11.2434
      vertex 73.45 -4.91144 10.9369
      vertex 71.55 -4.91144 10.9369
    endloop
  endfacet
  facet normal -0 0.562062 0.827095
    outer loop
      vertex 71.55 -2.67913 5.77836
      vertex 73.45 -2.93893 5.95491
      vertex 73.45 -2.67913 5.77836
    endloop
  endfacet
  facet normal 0 0.562062 0.827095
    outer loop
      vertex 73.45 -2.93893 5.95491
      vertex 71.55 -2.67913 5.77836
      vertex 71.55 -2.93893 5.95491
    endloop
  endfacet
  facet normal 0 -0.278898 -0.960321
    outer loop
      vertex 71.55 1.24345 14.8429
      vertex 73.45 1.54508 14.7553
      vertex 73.45 1.24345 14.8429
    endloop
  endfacet
  facet normal -0 -0.278898 -0.960321
    outer loop
      vertex 73.45 1.54508 14.7553
      vertex 71.55 1.24345 14.8429
      vertex 71.55 1.54508 14.7553
    endloop
  endfacet
  facet normal 0 0.790164 0.612895
    outer loop
      vertex 73.45 -3.85257 6.81288
      vertex 71.55 -4.04508 7.06107
      vertex 73.45 -4.04508 7.06107
    endloop
  endfacet
  facet normal 0 0.790164 0.612895
    outer loop
      vertex 71.55 -4.04508 7.06107
      vertex 73.45 -3.85257 6.81288
      vertex 71.55 -3.85257 6.81288
    endloop
  endfacet
  facet normal -0 0.397121 0.917766
    outer loop
      vertex 71.55 -1.84062 5.35112
      vertex 73.45 -2.1289 5.47586
      vertex 73.45 -1.84062 5.35112
    endloop
  endfacet
  facet normal 0 0.397121 0.917766
    outer loop
      vertex 73.45 -2.1289 5.47586
      vertex 71.55 -1.84062 5.35112
      vertex 71.55 -2.1289 5.47586
    endloop
  endfacet
  facet normal 0 0.750078 -0.661349
    outer loop
      vertex 73.45 -3.85257 13.1871
      vertex 71.55 -3.64484 13.4227
      vertex 73.45 -3.64484 13.4227
    endloop
  endfacet
  facet normal 0 0.750078 -0.661349
    outer loop
      vertex 71.55 -3.64484 13.4227
      vertex 73.45 -3.85257 13.1871
      vertex 71.55 -3.85257 13.1871
    endloop
  endfacet
  facet normal 0 0.21808 -0.975931
    outer loop
      vertex 71.55 -1.24345 14.8429
      vertex 73.45 -0.936906 14.9114
      vertex 73.45 -1.24345 14.8429
    endloop
  endfacet
  facet normal 0 0.21808 -0.975931
    outer loop
      vertex 73.45 -0.936906 14.9114
      vertex 71.55 -1.24345 14.8429
      vertex 71.55 -0.936906 14.9114
    endloop
  endfacet
  facet normal 0 0.82708 -0.562084
    outer loop
      vertex 73.45 -4.22164 12.6791
      vertex 71.55 -4.04508 12.9389
      vertex 73.45 -4.04508 12.9389
    endloop
  endfacet
  facet normal 0 0.82708 -0.562084
    outer loop
      vertex 71.55 -4.04508 12.9389
      vertex 73.45 -4.22164 12.6791
      vertex 71.55 -4.22164 12.6791
    endloop
  endfacet
  facet normal 0 0.960304 -0.278956
    outer loop
      vertex 73.45 -4.84292 11.2434
      vertex 71.55 -4.75528 11.5451
      vertex 73.45 -4.75528 11.5451
    endloop
  endfacet
  facet normal 0 0.960304 -0.278956
    outer loop
      vertex 71.55 -4.75528 11.5451
      vertex 73.45 -4.84292 11.2434
      vertex 71.55 -4.84292 11.2434
    endloop
  endfacet
  facet normal 0 -0.661443 -0.749996
    outer loop
      vertex 71.55 3.18712 13.8526
      vertex 73.45 3.42274 13.6448
      vertex 73.45 3.18712 13.8526
    endloop
  endfacet
  facet normal -0 -0.661443 -0.749996
    outer loop
      vertex 73.45 3.42274 13.6448
      vertex 71.55 3.18712 13.8526
      vertex 71.55 3.42274 13.6448
    endloop
  endfacet
  facet normal 0 0.453988 -0.891008
    outer loop
      vertex 71.55 -2.40877 14.3815
      vertex 73.45 -2.1289 14.5241
      vertex 73.45 -2.40877 14.3815
    endloop
  endfacet
  facet normal 0 0.453988 -0.891008
    outer loop
      vertex 73.45 -2.1289 14.5241
      vertex 71.55 -2.40877 14.3815
      vertex 71.55 -2.1289 14.5241
    endloop
  endfacet
  facet normal -0.707107 0 -0.707107
    outer loop
      vertex 69.813 -23.75 20
      vertex 71.55 23.75 18.263
      vertex 71.55 -23.75 18.263
    endloop
  endfacet
  facet normal -0.707107 0 -0.707107
    outer loop
      vertex 71.55 23.75 18.263
      vertex 69.813 -23.75 20
      vertex 69.813 23.75 20
    endloop
  endfacet
  facet normal -0.707107 0 0.707107
    outer loop
      vertex 69.813 -23.75 20
      vertex 69.863 23.75 20.05
      vertex 69.813 23.75 20
    endloop
  endfacet
  facet normal -0.707107 0 0.707107
    outer loop
      vertex 69.863 23.75 20.05
      vertex 69.813 -23.75 20
      vertex 69.863 -23.75 20.05
    endloop
  endfacet
  facet normal -0 0 1
    outer loop
      vertex 69.863 23.75 20.05
      vertex 73.45 -23.75 20.05
      vertex 73.45 23.75 20.05
    endloop
  endfacet
  facet normal 0 0 1
    outer loop
      vertex 73.45 -23.75 20.05
      vertex 69.863 23.75 20.05
      vertex 69.863 -23.75 20.05
    endloop
  endfacet
  facet normal -0 0 1
    outer loop
      vertex -72.5 23.75 0.95
      vertex 71.55 -23.75 0.95
      vertex 71.55 23.75 0.95
    endloop
  endfacet
  facet normal 0 0 1
    outer loop
      vertex 71.55 -23.75 0.95
      vertex -72.5 23.75 0.95
      vertex -72.5 -23.75 0.95
    endloop
  endfacet
  facet normal -1 0 0
    outer loop
      vertex -72.5 -23.75 -0.95
      vertex -72.5 23.75 0.95
      vertex -72.5 23.75 -0.95
    endloop
  endfacet
  facet normal -1 -0 0
    outer loop
      vertex -72.5 23.75 0.95
      vertex -72.5 -23.75 -0.95
      vertex -72.5 -23.75 0.95
    endloop
  endfacet
endsolid OpenSCAD_Model
